# 3ds Max Wavefront OBJ Exporter v0.97b - (c)2007 guruware
# File Created: 21.04.2019 00:54:57

mtllib EDU_Restaurant_barTop256.mtl

#
# object EDU_Restaurant_barTop256
#

v  256.0000 322.5000 -32.0000
v  128.0000 322.5000 -32.0000
v  128.0000 322.5000 -0.0000
v  256.0000 322.5000 -0.0000
v  26.2500 293.2500 -39.7500
v  14.5469 288.2500 -39.7500
v  14.5469 291.2500 -42.7500
v  0.0001 280.2500 -39.7500
v  0.0001 283.2500 -42.7813
v  0.0001 307.5000 -42.7500
v  26.2500 296.5000 -42.7500
v  37.9375 296.0000 -39.7500
v  37.9375 299.0000 -42.7500
v  49.4375 295.7500 -39.7500
v  49.4375 298.7500 -42.7500
v  74.8125 288.7500 -39.7813
v  128.0000 313.5000 -42.7500
v  74.8125 291.7500 -42.7500
v  104.4375 281.7500 -42.7813
v  128.0000 276.7500 -42.7813
v  128.0000 273.5000 -39.8750
v  104.4375 278.5000 -39.8438
v  128.0000 290.2500 -44.1250
v  128.0000 283.7500 -41.4375
v  104.4375 288.7500 -41.4063
v  49.4375 312.2500 -44.0938
v  36.6250 312.0000 -44.0938
v  128.0000 322.5000 -44.0938
v  74.8125 305.2500 -44.0938
v  104.4375 295.0000 -44.1250
v  74.8125 299.0000 -41.3750
v  49.4375 306.0000 -41.3438
v  14.5469 304.7500 -44.0938
v  0.0001 296.7500 -44.1250
v  0.0001 322.5000 -44.0938
v  25.5781 309.5000 -44.0938
v  36.6250 305.7500 -41.3438
v  25.5781 303.2500 -41.3438
v  14.5469 298.2500 -41.3125
v  0.0001 290.5000 -41.3125
v  0.0001 307.5000 -39.7500
v  0.0001 290.5000 -38.6563
v  0.0001 322.5000 -38.6563
v  241.3750 304.7500 -44.0938
v  241.3750 298.2500 -41.3125
v  230.3750 303.2500 -41.3438
v  256.0000 296.7500 -44.1250
v  256.0000 290.5000 -41.3125
v  256.0000 322.5000 -44.0938
v  230.3750 309.5000 -44.0938
v  219.2500 305.7500 -41.3438
v  219.2500 312.0000 -44.0938
v  206.5000 306.0000 -41.3438
v  206.5000 312.2500 -44.0938
v  181.1250 305.2500 -44.0938
v  151.5000 295.0000 -44.1250
v  151.5000 288.7500 -41.4063
v  181.1250 299.0000 -41.3750
v  256.0000 322.5000 -38.6563
v  256.0000 290.5000 -38.6563
v  128.0000 110.3750 -32.0000
v  128.0000 100.3750 -22.0000
v  0.0003 100.3750 -22.0000
v  0.0003 110.3750 -32.0000
v  0.0003 322.5000 -32.0000
v  128.0000 322.5000 -38.6563
v  256.0000 280.2500 -39.7500
v  256.0000 283.2500 -42.7813
v  256.0000 307.5000 -42.7500
v  256.0000 307.5000 -39.7500
v  181.1250 288.7500 -39.7813
v  151.5000 278.5000 -39.8438
v  151.5000 281.7500 -42.7813
v  181.1250 291.7500 -42.7500
v  206.5000 298.7500 -42.7500
v  206.5000 295.7500 -39.7500
v  218.0000 299.0000 -42.7500
v  218.0000 296.0000 -39.7500
v  229.6250 296.5000 -42.7500
v  241.3750 291.2500 -42.7500
v  229.6250 293.2500 -39.7500
v  241.3750 288.2500 -39.7500
v  104.4375 267.7500 -37.4375
v  74.8125 278.0000 -37.3750
v  74.8125 281.0000 -40.3750
v  104.4375 270.7500 -40.3750
v  128.0000 262.7500 -37.4688
v  128.0000 265.7500 -40.3750
v  128.0000 302.5000 -40.3438
v  49.4375 288.0000 -40.3438
v  37.9375 288.2500 -40.3438
v  0.0001 296.5000 -40.3438
v  26.2500 285.5000 -40.3438
v  14.5469 280.5000 -40.3750
v  0.0001 272.5000 -40.3750
v  14.5469 277.5000 -37.3438
v  0.0001 269.5000 -37.3438
v  26.2500 282.5000 -37.3438
v  37.9375 285.2500 -37.3750
v  49.4375 285.0000 -37.3750
v  0.0001 296.5000 -37.3438
v  256.0000 296.5000 -40.3438
v  256.0000 272.5000 -40.3750
v  241.3750 280.5000 -40.3750
v  229.6250 285.5000 -40.3438
v  218.0000 288.2500 -40.3438
v  206.5000 288.0000 -40.3438
v  218.0000 285.2500 -37.3750
v  229.6250 282.5000 -37.3438
v  241.3750 277.5000 -37.3438
v  256.0000 269.5000 -37.3438
v  206.5000 285.0000 -37.3750
v  181.1250 278.0000 -37.3750
v  181.1250 281.0000 -40.3750
v  151.5000 267.7500 -37.4375
v  151.5000 270.7500 -40.3750
v  256.0000 296.5000 -37.3438
v  0.0003 322.5000 -0.0000
v  0.0000 0.0004 -0.0000
v  0.0001 10.2969 -23.4531
v  0.0001 0.0004 -18.0000
v  256.0000 100.3750 -22.0000
v  256.0000 110.3750 -32.0000
v  256.0000 -0.0004 -18.0000
v  256.0000 10.2969 -23.4531
v  256.0000 -0.0004 -0.0000
v  128.0000 0.0000 -0.0000
v  128.0000 0.0000 -18.0000
v  128.0000 10.2969 -23.4531
# 129 vertices

vn 0.0000 1.0000 -0.0000
vn 0.2342 -0.6623 -0.7117
vn 0.3340 -0.6668 -0.6662
vn 0.1711 -0.3565 -0.9185
vn 0.3641 -0.6620 -0.6552
vn 0.2553 -0.4625 -0.8491
vn 0.0006 0.0006 -1.0000
vn 0.1086 -0.3386 -0.9346
vn 0.0719 -0.7022 -0.7084
vn 0.0322 -0.3575 -0.9334
vn -0.1097 -0.7028 -0.7028
vn -0.0495 -0.3550 -0.9336
vn -0.2138 -0.6859 -0.6955
vn 0.0000 0.0009 -1.0000
vn -0.1115 -0.3678 -0.9232
vn -0.1057 -0.3655 -0.9248
vn -0.0838 -0.3950 -0.9148
vn -0.1403 -0.6605 -0.7376
vn -0.1792 -0.6597 -0.7299
vn -0.0469 -0.2191 -0.9746
vn -0.0820 -0.3808 -0.9210
vn -0.1044 -0.3951 -0.9127
vn -0.0217 -0.1874 -0.9820
vn 0.0222 -0.1928 -0.9810
vn 0.0000 0.0008 -1.0000
vn -0.0611 -0.1987 -0.9782
vn -0.0596 -0.2075 -0.9764
vn -0.1264 -0.3957 -0.9096
vn -0.0553 -0.4018 -0.9140
vn 0.0936 -0.1930 -0.9767
vn 0.1439 -0.2663 -0.9531
vn 0.0006 0.0005 -1.0000
vn 0.0595 -0.1931 -0.9794
vn 0.0521 -0.4022 -0.9141
vn 0.1385 -0.3972 -0.9072
vn 0.1985 -0.3878 -0.9001
vn 0.2136 -0.4009 -0.8909
vn -1.0000 0.0000 -0.0000
vn -0.0936 -0.1932 -0.9767
vn -0.1980 -0.3878 -0.9002
vn -0.1385 -0.3972 -0.9072
vn -0.1430 -0.2660 -0.9533
vn -0.2125 -0.4010 -0.8911
vn -0.0006 0.0005 -1.0000
vn -0.0594 -0.1929 -0.9794
vn -0.0518 -0.4022 -0.9141
vn -0.0221 -0.1929 -0.9810
vn 0.0553 -0.4018 -0.9140
vn 0.0217 -0.1874 -0.9820
vn 0.0611 -0.1987 -0.9782
vn 0.0470 -0.2191 -0.9746
vn 0.0596 -0.2075 -0.9764
vn 0.1046 -0.3951 -0.9127
vn 0.1264 -0.3957 -0.9096
vn 0.0822 -0.3808 -0.9210
vn 1.0000 0.0000 -0.0000
vn 0.0000 -0.3827 -0.9239
vn 0.0000 -0.3752 -0.9269
vn 0.0000 0.0000 -1.0000
vn 0.2138 -0.6859 -0.6955
vn 0.1794 -0.6597 -0.7298
vn 0.1058 -0.3654 -0.9248
vn 0.1115 -0.3678 -0.9232
vn 0.1406 -0.6604 -0.7376
vn 0.0841 -0.3951 -0.9148
vn 0.0495 -0.3550 -0.9336
vn 0.1097 -0.7028 -0.7028
vn -0.0324 -0.3573 -0.9334
vn -0.0724 -0.7021 -0.7084
vn -0.1087 -0.3389 -0.9345
vn -0.0006 0.0006 -1.0000
vn -0.1704 -0.3567 -0.9186
vn -0.2538 -0.4623 -0.8496
vn -0.2339 -0.6624 -0.7117
vn -0.3325 -0.6671 -0.6666
vn -0.3624 -0.6625 -0.6556
vn -0.1864 -0.6877 -0.7017
vn -0.2187 -0.6898 -0.6902
vn -0.1137 -0.3679 -0.9229
vn -0.1102 -0.3838 -0.9168
vn -0.1463 -0.6888 -0.7101
vn -0.0880 -0.4147 -0.9057
vn -0.0000 0.0010 -1.0000
vn -0.0491 -0.3528 -0.9344
vn 0.0351 -0.3528 -0.9350
vn 0.0000 0.0014 -1.0000
vn 0.1131 -0.3571 -0.9272
vn 0.1710 -0.3575 -0.9181
vn 0.2547 -0.4630 -0.8490
vn 0.3347 -0.6698 -0.6629
vn 0.2358 -0.6875 -0.6868
vn 0.0782 -0.7016 -0.7082
vn -0.1087 -0.6992 -0.7066
vn -0.0000 0.0014 -1.0000
vn -0.2532 -0.4629 -0.8495
vn -0.1703 -0.3577 -0.9182
vn -0.1132 -0.3574 -0.9271
vn -0.0353 -0.3527 -0.9351
vn 0.0491 -0.3528 -0.9344
vn -0.0787 -0.7016 -0.7082
vn -0.2356 -0.6876 -0.6868
vn -0.3333 -0.6701 -0.6632
vn 0.1087 -0.6992 -0.7066
vn 0.2187 -0.6898 -0.6902
vn 0.1137 -0.3679 -0.9229
vn 0.1866 -0.6876 -0.7017
vn 0.1102 -0.3837 -0.9168
vn 0.1466 -0.6887 -0.7100
vn 0.0882 -0.4148 -0.9056
vn -1.0000 -0.0000 -0.0000
vn -0.0000 -1.0000 -0.0000
vn 0.0000 0.0000 1.0000
vn 0.0000 -0.2333 -0.9724
vn -0.0000 -0.2333 -0.9724
vn -0.0000 -0.4680 -0.8837
# 115 vertex normals

vt 0.0125 0.1411 0.1411
vt 0.4568 0.1411 0.1411
vt 0.4568 0.0298 0.0298
vt 0.0125 0.0298 0.0298
vt 0.8359 0.1621 0.1621
vt 0.8218 0.1191 0.1191
vt 0.8384 0.1196 0.1196
vt 0.8013 0.0664 0.0664
vt 0.8174 0.0664 0.0664
vt 0.8843 0.0664 0.0664
vt 0.8521 0.1626 0.1626
vt 0.8418 0.2056 0.2056
vt 0.8579 0.2061 0.2061
vt 0.8398 0.2495 0.2495
vt 0.8564 0.2500 0.2500
vt 0.8184 0.3481 0.3481
vt 0.8975 0.5540 0.5540
vt 0.8350 0.3486 0.3486
vt 0.8042 0.4648 0.4648
vt 0.7959 0.5537 0.5537
vt 0.7798 0.5542 0.5542
vt 0.7876 0.4644 0.4644
vt 0.5986 0.5613 0.5613
vt 0.5742 0.5613 0.5613
vt 0.5928 0.4717 0.4717
vt 0.6826 0.2622 0.2622
vt 0.6816 0.2139 0.2139
vt 0.7212 0.5613 0.5613
vt 0.6563 0.3589 0.3589
vt 0.6172 0.4717 0.4717
vt 0.6318 0.3589 0.3589
vt 0.6587 0.2622 0.2622
vt 0.6538 0.1294 0.1294
vt 0.6235 0.0742 0.0742
vt 0.7212 0.0742 0.0742
vt 0.6719 0.1719 0.1719
vt 0.6572 0.2139 0.2139
vt 0.6475 0.1719 0.1719
vt 0.6294 0.1299 0.1299
vt 0.5996 0.0742 0.0742
vt 0.7861 0.0449 0.0449
vt 0.8892 0.0449 0.0449
vt 0.8892 0.0562 0.0562
vt 0.7974 0.0562 0.0562
vt 0.6118 0.0571 0.0571
vt 0.6118 0.0674 0.0674
vt 0.7334 0.0674 0.0674
vt 0.6357 0.0469 0.0469
vt 0.7334 0.0469 0.0469
vt 0.6587 0.2627 0.2627
vt 0.6826 0.2627 0.2627
vt 0.6563 0.3594 0.3594
vt 0.6172 0.4722 0.4722
vt 0.5928 0.4722 0.4722
vt 0.6318 0.3594 0.3594
vt 0.4939 0.1890 0.1890
vt 0.4939 0.1514 0.1514
vt 0.0117 0.1514 0.1514
vt 0.0117 0.1890 0.1890
vt 0.0117 0.9882 0.9882
vt 0.4939 0.9882 0.9882
vt 0.7446 0.5615 0.5615
vt 0.7446 0.0742 0.0742
vt 0.7241 0.0742 0.0742
vt 0.7241 0.5615 0.5615
vt 0.6323 0.6724 0.6724
vt 0.5698 0.6724 0.6724
vt 0.5669 0.6697 0.6697
vt 0.6323 0.6631 0.6631
vt 0.5371 0.6631 0.6631
vt 0.5400 0.6697 0.6697
vt 0.5371 0.6682 0.6682
vt 0.5249 0.6765 0.6765
vt 0.5249 0.6838 0.6838
vt 0.5786 0.6838 0.6838
vt 0.5786 0.6765 0.6765
vt 0.6318 0.6765 0.6765
vt 0.6318 0.6838 0.6838
vt 0.5249 0.6763 0.6763
vt 0.5249 0.8112 0.8112
vt 0.5781 0.8112 0.8112
vt 0.5781 0.6763 0.6763
vt 0.6318 0.8112 0.8112
vt 0.6318 0.6763 0.6763
vt 0.9863 0.6448 0.6448
vt 0.9863 0.9844 0.9844
vt 0.5039 0.9844 0.9844
vt 0.5039 0.6448 0.6448
vt 0.9863 0.6064 0.6064
vt 0.5039 0.6064 0.6064
vt 0.5039 0.9845 0.9845
vt 0.9863 0.9845 0.9845
vt 0.9863 0.6062 0.6062
vt 0.5039 0.6062 0.6062
# 94 texture coords

o EDU_Restaurant_barTop256
g EDU_Restaurant_barTop256
usemtl EDU_Restaurant_barTop_Diffuse_shader
s 1
f 1/1/1 2/2/1 3/3/1 
f 3/3/1 4/4/1 1/1/1 
f 5/5/2 6/6/3 7/7/4 
f 6/6/3 8/8/5 9/9/6 
f 9/9/6 7/7/4 6/6/3 
f 7/7/4 9/9/6 10/10/7 
f 11/11/8 7/7/4 10/10/7 
f 7/7/4 11/11/8 5/5/2 
f 12/12/9 5/5/2 11/11/8 
f 11/11/8 13/13/10 12/12/9 
f 14/14/11 12/12/9 13/13/10 
f 13/13/10 15/15/12 14/14/11 
f 16/16/13 14/14/11 15/15/12 
f 13/13/10 11/11/8 10/10/7 
f 13/13/10 10/10/7 17/17/14 
f 15/15/12 13/13/10 17/17/14 
f 18/18/15 15/15/12 17/17/14 
f 15/15/12 18/18/15 16/16/13 
f 16/16/13 18/18/15 19/19/16 
f 19/19/16 18/18/15 17/17/14 
f 20/20/17 19/19/16 17/17/14 
f 19/19/16 20/20/17 21/21/18 
f 21/21/18 22/22/19 19/19/16 
f 19/19/16 22/22/19 16/16/13 
f 23/23/20 24/24/21 25/25/22 
f 26/26/23 27/27/24 28/28/25 
f 26/26/23 28/28/25 29/29/26 
f 28/28/25 23/23/20 29/29/26 
f 23/23/20 30/30/27 29/29/26 
f 25/25/22 30/30/27 23/23/20 
f 30/30/27 25/25/22 31/31/28 
f 31/31/28 29/29/26 30/30/27 
f 29/29/26 31/31/28 32/32/29 
f 32/32/29 26/26/23 29/29/26 
f 27/27/24 26/26/23 32/32/29 
f 33/33/30 34/34/31 35/35/32 
f 36/36/33 33/33/30 35/35/32 
f 27/27/24 36/36/33 35/35/32 
f 27/27/24 35/35/32 28/28/25 
f 32/32/29 37/37/34 27/27/24 
f 36/36/33 27/27/24 37/37/34 
f 37/37/34 38/38/35 36/36/33 
f 33/33/30 36/36/33 38/38/35 
f 38/38/35 39/39/36 33/33/30 
f 34/34/31 33/33/30 39/39/36 
f 39/39/36 40/40/37 34/34/31 
f 8/41/38 41/42/38 10/43/38 
f 10/43/38 9/44/38 8/41/38 
f 40/45/38 42/46/38 43/47/38 
f 34/48/38 40/45/38 43/47/38 
f 35/49/38 34/48/38 43/47/38 
f 44/33/39 45/39/40 46/38/41 
f 47/34/42 48/40/43 45/39/40 
f 45/39/40 44/33/39 47/34/42 
f 49/35/44 47/34/42 44/33/39 
f 49/35/44 44/33/39 50/36/45 
f 46/38/41 50/36/45 44/33/39 
f 50/36/45 46/38/41 51/37/46 
f 51/37/46 52/27/47 50/36/45 
f 52/27/47 51/37/46 53/50/48 
f 53/50/48 54/51/49 52/27/47 
f 55/52/50 54/51/49 53/50/48 
f 49/35/44 50/36/45 52/27/47 
f 28/28/25 49/35/44 52/27/47 
f 28/28/25 52/27/47 54/51/49 
f 28/28/25 54/51/49 55/52/50 
f 28/28/25 55/52/50 23/23/51 
f 55/52/50 56/53/52 23/23/51 
f 23/23/51 56/53/52 57/54/53 
f 58/55/54 57/54/53 56/53/52 
f 56/53/52 55/52/50 58/55/54 
f 53/50/48 58/55/54 55/52/50 
f 57/54/53 24/24/55 23/23/51 
f 49/49/56 59/47/56 47/48/56 
f 59/47/56 48/45/56 47/48/56 
f 59/47/56 60/46/56 48/45/56 
f 61/56/57 62/57/58 63/58/58 
f 63/58/58 64/59/57 61/56/57 
f 61/56/57 64/59/57 65/60/59 
f 65/60/59 2/61/59 61/56/57 
f 66/62/1 59/63/1 49/64/1 
f 49/64/1 28/65/1 66/62/1 
f 67/41/56 68/44/56 69/43/56 
f 69/43/56 70/42/56 67/41/56 
f 71/16/60 72/22/61 73/19/62 
f 73/19/62 74/18/63 71/16/60 
f 73/19/62 72/22/61 21/21/64 
f 21/21/64 20/20/65 73/19/62 
f 17/17/14 73/19/62 20/20/65 
f 17/17/14 74/18/63 73/19/62 
f 17/17/14 75/15/66 74/18/63 
f 71/16/60 74/18/63 75/15/66 
f 75/15/66 76/14/67 71/16/60 
f 76/14/67 75/15/66 77/13/68 
f 77/13/68 78/12/69 76/14/67 
f 78/12/69 77/13/68 79/11/70 
f 17/17/14 69/10/71 75/15/66 
f 69/10/71 77/13/68 75/15/66 
f 69/10/71 79/11/70 77/13/68 
f 69/10/71 80/7/72 79/11/70 
f 69/10/71 68/9/73 80/7/72 
f 79/11/70 81/5/74 78/12/69 
f 81/5/74 79/11/70 80/7/72 
f 80/7/72 82/6/75 81/5/74 
f 82/6/75 80/7/72 68/9/73 
f 68/9/73 67/8/76 82/6/75 
f 83/22/77 84/16/78 85/18/79 
f 85/18/79 86/19/80 83/22/77 
f 87/21/81 83/22/77 86/19/80 
f 86/19/80 88/20/82 87/21/81 
f 88/20/82 86/19/80 89/17/83 
f 86/19/80 85/18/79 89/17/83 
f 85/18/79 90/15/84 89/17/83 
f 90/15/84 91/13/85 89/17/83 
f 91/13/85 92/10/86 89/17/83 
f 91/13/85 93/11/87 92/10/86 
f 93/11/87 94/7/88 92/10/86 
f 94/7/88 95/9/89 92/10/86 
f 96/6/90 97/8/5 95/9/89 
f 95/9/89 94/7/88 96/6/90 
f 98/5/91 96/6/90 94/7/88 
f 94/7/88 93/11/87 98/5/91 
f 99/12/92 98/5/91 93/11/87 
f 93/11/87 91/13/85 99/12/92 
f 100/14/93 99/12/92 91/13/85 
f 91/13/85 90/15/84 100/14/93 
f 84/16/78 100/14/93 90/15/84 
f 90/15/84 85/18/79 84/16/78 
f 97/41/38 101/42/38 92/43/38 
f 92/43/38 95/44/38 97/41/38 
f 102/10/94 103/9/95 104/7/96 
f 102/10/94 104/7/96 105/11/97 
f 102/10/94 106/13/98 107/15/99 
f 102/10/94 105/11/97 106/13/98 
f 108/12/100 106/13/98 105/11/97 
f 105/11/97 109/5/101 108/12/100 
f 109/5/101 105/11/97 104/7/96 
f 104/7/96 110/6/102 109/5/101 
f 110/6/102 104/7/96 103/9/95 
f 103/9/95 111/8/76 110/6/102 
f 112/14/103 107/15/99 106/13/98 
f 106/13/98 108/12/100 112/14/103 
f 107/15/99 112/14/103 113/16/104 
f 113/16/104 114/18/105 107/15/99 
f 114/18/105 113/16/104 115/22/106 
f 115/22/106 116/19/107 114/18/105 
f 116/19/107 115/22/106 87/21/108 
f 87/21/108 88/20/109 116/19/107 
f 89/17/83 116/19/107 88/20/109 
f 89/17/83 114/18/105 116/19/107 
f 89/17/83 107/15/99 114/18/105 
f 89/17/83 102/10/94 107/15/99 
f 111/41/56 103/44/56 102/43/56 
f 102/43/56 117/42/56 111/41/56 
f 65/1/1 118/4/1 3/3/1 
f 3/3/1 2/2/1 65/1/1 
f 35/64/1 43/63/1 66/62/1 
f 66/62/1 28/65/1 35/64/1 
f 65/66/38 64/67/38 63/68/38 
f 118/69/38 65/66/38 63/68/38 
f 118/69/38 63/68/38 119/70/38 
f 63/68/38 120/71/38 119/70/38 
f 120/71/38 121/72/110 119/70/38 
f 122/58/58 62/57/58 61/56/57 
f 61/56/57 123/59/57 122/58/58 
f 1/60/59 123/59/57 61/56/57 
f 61/56/57 2/61/59 1/60/59 
f 124/72/56 125/71/56 122/68/56 
f 126/70/56 124/72/56 122/68/56 
f 4/69/56 126/70/56 122/68/56 
f 1/66/56 4/69/56 122/68/56 
f 1/66/56 122/68/56 123/67/56 
f 124/73/111 126/74/111 127/75/111 
f 127/75/111 128/76/111 124/73/111 
f 121/77/111 128/76/111 127/75/111 
f 127/75/111 119/78/111 121/77/111 
f 126/79/112 4/80/112 3/81/112 
f 3/81/112 127/82/112 126/79/112 
f 127/82/112 3/81/112 118/83/112 
f 118/83/112 119/84/112 127/82/112 
f 129/85/113 62/86/58 122/87/58 
f 122/87/58 125/88/114 129/85/113 
f 128/89/115 129/85/113 125/88/114 
f 125/88/114 124/90/115 128/89/115 
f 63/91/58 62/92/58 129/85/113 
f 129/85/113 120/88/114 63/91/58 
f 120/88/114 129/85/113 128/93/115 
f 128/93/115 121/94/115 120/88/114 
# 0 polygons - 188 triangles

