# 3ds Max Wavefront OBJ Exporter v0.97b - (c)2007 guruware
# File Created: 06.03.2018 11:45:48

mtllib VodkaShardBottom.mtl

#
# object VodkaShardBottom
#

v  -4.1445 0.9858 1.8711
v  -3.0840 0.9858 3.4570
v  -1.4990 0.9858 4.5156
v  0.3721 0.9858 4.8867
v  2.2422 0.9858 4.5156
v  0.3721 0.9858 -4.8867
v  -1.4990 0.9858 -4.5156
v  2.2422 0.9858 -4.5156
v  3.8301 0.9858 3.4570
v  4.8867 0.9858 1.8711
v  -4.1445 0.9858 -1.8711
v  -4.5156 0.9858 0.0000
v  -3.5859 6.4766 3.9590
v  -1.7705 6.4766 5.1719
v  -1.4990 6.2227 4.5156
v  -3.0840 6.2227 3.4570
v  -4.8008 6.0234 2.1426
v  -4.1445 5.8242 1.8711
v  5.5430 2.6152 2.1426
v  5.9688 3.9863 0.0000
v  5.2617 4.0469 0.0000
v  4.8867 2.8516 1.8711
v  4.3320 3.2695 3.9590
v  3.8301 3.4219 3.4570
v  2.5137 4.2070 5.1719
v  2.2422 4.2422 4.5156
v  0.3721 8.8203 5.5977
v  0.3721 8.2734 4.8867
v  3.8301 5.6992 -3.4570
v  2.2422 2.7090 -4.5156
v  3.8301 0.9858 -3.4570
v  4.8867 3.4160 -1.8711
v  4.8867 0.9858 -1.8711
v  5.2617 0.9858 0.0000
v  -4.1445 3.6641 -1.8711
v  -4.5156 4.4180 0.0000
v  -3.0840 4.0469 -3.4570
v  -3.0840 0.9858 -3.4570
v  -1.4990 3.7227 -4.5156
v  0.3721 2.8223 -4.8867
v  -5.2266 4.4102 0.0000
v  -4.8008 3.5449 -2.1426
v  -3.5859 3.9883 -3.9590
v  -1.7705 3.6133 -5.1719
v  0.3721 2.5820 -5.5977
v  2.5137 2.4512 -5.1719
v  4.3320 0.7944 3.9590
v  5.5430 0.7944 2.1426
v  5.9688 0.7944 0.0000
v  5.5430 3.2637 -2.1426
v  5.5430 0.7944 -2.1426
v  4.3320 0.7944 -3.9590
v  4.3320 5.8750 -3.9590
v  2.5137 0.7944 -5.1719
v  0.3721 0.7944 -5.5977
v  -1.7705 0.7944 -5.1719
v  -3.5859 0.7944 -3.9590
v  -4.8008 0.7944 -2.1426
v  -5.2266 0.7944 0.0000
v  -4.8008 0.7944 2.1426
v  -3.5859 0.7944 3.9590
v  -4.1406 0.0945 1.8691
v  -4.5117 0.0945 0.0000
v  -3.0820 0.0945 3.4551
v  -4.1406 0.0945 -1.8691
v  -3.0820 0.0945 -3.4551
v  -1.4971 0.0945 -4.5117
v  0.3721 0.0945 -4.8828
v  2.2422 0.0945 -4.5117
v  3.8262 0.0945 -3.4551
v  4.8828 0.0945 -1.8691
v  5.2578 0.0945 0.0000
v  4.8828 0.0945 1.8691
v  3.8262 0.0945 3.4551
v  2.2422 0.0945 4.5117
v  0.3721 0.0945 4.8828
v  -1.4971 0.0945 4.5117
v  2.5137 0.7944 5.1719
v  0.3721 0.7944 5.5977
v  -1.7705 0.7944 5.1719
# 80 vertices

vn 0.0000 1.0000 -0.0000
vn 0.1675 0.9370 -0.3065
vn 0.1903 0.9395 -0.2848
vn 0.1667 0.9368 -0.3077
vn 0.0707 0.8784 -0.4726
vn 0.0707 0.8783 -0.4729
vn 0.0732 0.8336 0.5474
vn 0.0714 0.8336 0.5477
vn 0.0718 0.8336 0.5476
vn 0.1217 0.8755 0.4676
vn 0.3802 0.9194 -0.1010
vn 0.3692 0.9252 -0.0871
vn 0.3813 0.9188 -0.1022
vn 0.6641 0.7091 -0.2370
vn 0.6594 0.7143 -0.2344
vn 0.8460 0.4225 -0.3253
vn 0.8461 0.4224 -0.3250
vn 0.7069 0.0000 -0.7073
vn 0.9239 0.0000 -0.3826
vn 0.6970 0.0000 -0.7171
vn 0.3823 0.0000 -0.9240
vn 0.3439 0.0000 -0.9390
vn -0.0000 0.0000 -1.0000
vn 0.0511 0.0000 -0.9987
vn -0.3820 0.0000 -0.9242
vn -0.3081 0.0000 -0.9513
vn -0.5547 0.0000 -0.8321
vn -0.6295 0.0000 -0.7770
vn -0.9239 0.0000 -0.3827
vn -0.8322 0.0000 -0.5545
vn -0.9289 0.0000 -0.3704
vn -0.7213 0.0000 0.6926
vn -0.4228 0.0000 0.9062
vn -0.3820 0.0000 0.9242
vn -0.7072 0.0000 0.7070
vn -0.9139 0.0000 0.4060
vn -0.9239 0.0000 0.3827
vn -0.9998 0.0000 0.0213
vn -1.0000 0.0000 -0.0000
vn 0.9275 0.0000 0.3737
vn 1.0000 0.0000 -0.0000
vn 0.9239 0.0000 0.3826
vn 0.7054 0.0000 0.7088
vn 0.7069 0.0000 0.7073
vn 0.4210 0.0000 0.9070
vn 0.3823 0.0000 0.9240
vn 0.0281 0.0000 0.9996
vn -0.0000 0.0000 1.0000
vn -0.0093 0.8702 -0.4927
vn -0.0098 0.8708 -0.4915
vn -0.1183 0.9824 -0.1446
vn -0.1168 0.9822 -0.1472
vn -0.0691 0.9964 -0.0482
vn -0.0683 0.9965 -0.0487
vn 0.2275 0.9410 -0.2504
vn 0.2167 0.9445 -0.2471
vn 0.2383 0.9201 -0.3109
vn 0.2497 0.9173 -0.3101
vn 0.1204 0.9401 -0.3191
vn 0.1203 0.9399 -0.3195
vn 0.9291 0.0000 0.3697
vn 0.8321 0.0000 0.5547
vn 0.6831 -0.2592 0.6828
vn 0.8520 -0.3874 0.3523
vn 0.9223 -0.3865 0.0002
vn 0.9998 0.0000 -0.0212
vn 0.9141 0.0000 -0.4055
vn 0.8519 -0.3873 -0.3525
vn 0.6521 -0.3873 -0.6518
vn 0.7214 0.0000 -0.6926
vn 0.4230 0.0000 -0.9061
vn 0.3524 -0.3872 -0.8520
vn -0.0000 -0.3875 -0.9219
vn -0.0282 0.0000 -0.9996
vn -0.3527 -0.3875 -0.8518
vn -0.4213 0.0000 -0.9069
vn -0.6518 -0.3869 -0.6523
vn -0.7054 0.0000 -0.7088
vn -0.9274 0.0000 -0.3740
vn -0.8518 -0.3874 -0.3528
vn -0.8595 -0.5106 -0.0235
vn -0.9983 0.0000 0.0591
vn -0.8922 -0.2593 0.3697
vn -0.9238 0.0000 0.3828
vn -0.6520 -0.3869 0.6521
vn -0.3853 -0.9089 0.1595
vn -0.2863 -0.9565 0.0569
vn -0.2953 -0.9086 0.2953
vn -0.3565 -0.9205 -0.1603
vn -0.2951 -0.9086 -0.2955
vn -0.1594 -0.9089 -0.3853
vn -0.0001 -0.9090 -0.4168
vn 0.1595 -0.9089 -0.3854
vn 0.2951 -0.9088 -0.2951
vn 0.3849 -0.9091 -0.1596
vn 0.4183 -0.9083 0.0003
vn 0.3852 -0.9090 0.1593
vn 0.2951 -0.9088 0.2951
vn 0.1595 -0.9088 0.3855
vn 0.0000 -0.9090 0.4168
vn -0.1592 -0.9090 0.3852
vn 0.3523 -0.3872 0.8520
vn 0.0001 -0.3875 0.9219
vn -0.3526 -0.3873 0.8518
vn -0.6930 -0.7077 -0.1376
vn -0.6971 0.0000 0.7170
vn -0.3442 0.0000 0.9389
vn -0.0513 0.0000 0.9987
vn 0.3085 0.0000 0.9512
vn 0.5549 0.0000 0.8319
vn -0.6829 0.5377 -0.4945
vn -0.6832 0.5378 -0.4939
vn -0.6832 0.5378 -0.4940
vn -0.6829 0.5377 -0.4946
vn 0.4162 0.6408 0.6450
vn 0.4185 0.6414 0.6431
vn 0.4182 0.6413 0.6433
vn 0.4158 0.6407 0.6454
vn 0.0804 0.9395 -0.3329
vn 0.0805 0.9395 -0.3329
vn -0.5971 0.6339 -0.4916
vn -0.5979 0.6354 -0.4887
vn -0.5978 0.6351 -0.4892
vn -0.5969 0.6337 -0.4921
# 124 vertex normals

vt 0.6533 0.0679 0.0679
vt 0.0534 0.0684 0.0684
vt 0.0934 0.0684 0.0684
vt 0.1335 0.0693 0.0693
vt 0.1736 0.0674 0.0674
vt 0.4543 0.0664 0.0664
vt 0.4944 0.0669 0.0669
vt 0.4141 0.0664 0.0664
vt 0.2137 0.0664 0.0664
vt 0.2537 0.0664 0.0664
vt 0.5747 0.0669 0.0669
vt 0.6157 0.0674 0.0674
vt 0.0534 0.1382 0.1382
vt 0.0934 0.1382 0.1382
vt 0.0133 0.1304 0.1304
vt 0.2537 0.0728 0.0728
vt 0.2939 0.0957 0.0957
vt 0.2137 0.0840 0.0840
vt 0.1736 0.0996 0.0996
vt 0.1335 0.1777 0.1777
vt 0.0534 0.0864 0.0864
vt 0.0133 0.0845 0.0845
vt 0.0934 0.0864 0.0864
vt 0.1335 0.0942 0.0942
vt 0.1736 0.0781 0.0781
vt 0.2137 0.0752 0.0752
vt 0.3740 0.1279 0.1279
vt 0.4141 0.0698 0.0698
vt 0.3740 0.0679 0.0679
vt 0.3340 0.0840 0.0840
vt 0.3340 0.0664 0.0664
vt 0.2939 0.0669 0.0669
vt 0.5747 0.0884 0.0884
vt 0.6157 0.1030 0.1030
vt 0.5347 0.0962 0.0962
vt 0.5347 0.0669 0.0669
vt 0.4944 0.0898 0.0898
vt 0.4543 0.0723 0.0723
vt 0.6533 0.1304 0.1304
vt 0.2137 0.0420 0.0420
vt 0.2537 0.0420 0.0420
vt 0.2939 0.0420 0.0420
vt 0.3340 0.0420 0.0420
vt 0.3740 0.0420 0.0420
vt 0.4141 0.0420 0.0420
vt 0.4543 0.0420 0.0420
vt 0.4944 0.0420 0.0420
vt 0.5347 0.0420 0.0420
vt 0.5747 0.0420 0.0420
vt 0.6157 0.0420 0.0420
vt 0.6533 0.0420 0.0420
vt 0.8076 0.8102 0.8102
vt 0.7803 0.7916 0.7916
vt 0.7759 0.8018 0.8018
vt 0.7476 0.7960 0.7960
vt 0.8003 0.8179 0.8179
vt 0.7188 0.8018 0.8018
vt 0.6948 0.8179 0.8179
vt 0.6787 0.8420 0.8420
vt 0.6729 0.8706 0.8706
vt 0.6787 0.8991 0.8991
vt 0.6948 0.9232 0.9232
vt 0.7188 0.9394 0.9394
vt 0.7476 0.9451 0.9451
vt 0.7759 0.9394 0.9394
vt 0.8003 0.9232 0.9232
vt 0.8164 0.8991 0.8991
vt 0.8218 0.8706 0.8706
vt 0.8164 0.8420 0.8420
vt 0.6621 0.8706 0.8706
vt 0.6685 0.9033 0.9033
vt 0.6870 0.9309 0.9309
vt 0.7148 0.9495 0.9495
vt 0.7476 0.9560 0.9560
vt 0.7803 0.9495 0.9495
vt 0.8076 0.9309 0.9309
vt 0.8262 0.9033 0.9033
vt 0.8330 0.8706 0.8706
vt 0.8262 0.8379 0.8379
vt 0.7476 0.7852 0.7852
vt 0.7148 0.7916 0.7916
vt 0.6870 0.8102 0.8102
vt 0.6685 0.8379 0.8379
vt 0.0133 0.0420 0.0420
vt 0.0534 0.0420 0.0420
vt 0.0934 0.0420 0.0420
vt 0.1335 0.0420 0.0420
vt 0.1736 0.0420 0.0420
vt 0.6157 0.0903 0.0903
vt 0.6533 0.0820 0.0820
# 90 texture coords

g VodkaShardBottom
usemtl vodkanocube_shader
s 1
f 1/1/1 2/2/1 3/3/1 
s 2
f 3/3/1 4/4/1 5/5/1 
s 3
f 6/6/1 7/7/1 8/8/1 
s 4
f 5/5/1 9/9/1 10/10/1 
s 5
f 3/3/1 5/5/1 10/10/1 
s 6
f 3/3/1 10/10/1 8/8/1 
s 7
f 11/11/1 3/3/1 8/8/1 
s 8
f 11/11/1 1/1/1 3/3/1 
s 9
f 11/11/1 12/12/1 1/1/1 
s 10
f 13/13/2 14/14/3 15/14/3 
s 11
f 15/14/3 16/13/4 13/13/2 
s 12
f 17/15/5 13/13/2 16/13/4 
s 13
f 16/13/4 18/15/6 17/15/5 
s 14
f 19/16/7 20/17/8 21/17/9 
s 15
f 21/17/9 22/16/10 19/16/7 
s 16
f 23/18/11 19/16/12 22/16/12 
s 17
f 22/16/10 24/18/13 23/18/11 
s 18
f 25/19/14 23/18/11 24/18/13 
s 19
f 24/18/13 26/19/15 25/19/14 
s 20
f 27/20/16 25/19/14 26/19/15 
s 21
f 26/19/15 28/20/17 27/20/16 
s 22
f 2/21/18 1/22/19 18/22/19 
s 23
f 18/22/19 16/21/20 2/21/18 
s 24
f 3/23/21 2/21/18 16/21/20 
s 25
f 16/21/20 15/23/22 3/23/21 
s 26
f 4/24/23 3/23/21 15/23/22 
s 27
f 15/23/22 28/24/24 4/24/23 
s 28
f 5/25/25 4/24/23 28/24/24 
s 29
f 28/24/24 26/25/26 5/25/25 
s 30
f 9/26/27 5/25/25 26/25/26 
s 31
f 26/25/26 24/26/28 9/26/27 
s 32
f 10/16/29 9/26/30 24/26/30 
s 33
f 24/26/28 22/16/31 10/16/29 
s 34
f 29/27/32 30/28/33 8/8/34 
s 35
f 8/8/34 31/29/35 29/27/32 
s 36
f 32/30/36 29/27/32 31/29/35 
s 37
f 31/29/35 33/31/37 32/30/36 
s 38
f 21/17/38 32/30/36 33/31/37 
s 39
f 33/31/37 34/32/39 21/17/38 
s 40
f 22/16/31 21/17/38 34/32/39 
s 41
f 34/32/39 10/10/29 22/16/31 
s 42
f 35/33/40 36/34/41 12/12/41 
s 43
f 12/12/41 11/11/42 35/33/40 
s 44
f 37/35/43 35/33/40 11/11/42 
s 45
f 11/11/42 38/36/44 37/35/43 
s 46
f 39/37/45 37/35/43 38/36/44 
s 47
f 38/36/44 7/7/46 39/37/45 
s 48
f 40/38/47 39/37/45 7/7/46 
s 49
f 7/7/46 6/6/48 40/38/47 
s 50
f 30/28/33 40/38/47 6/6/48 
s 51
f 6/6/48 8/8/34 30/28/33 
s 52
f 41/34/49 17/39/5 18/39/6 
s 53
f 18/39/6 36/34/50 41/34/49 
s 54
f 42/33/51 41/34/49 36/34/50 
s 55
f 36/34/50 35/33/52 42/33/51 
s 56
f 43/35/53 42/33/51 35/33/52 
s 57
f 35/33/52 37/35/54 43/35/53 
s 58
f 44/37/55 43/35/53 37/35/54 
s 59
f 37/35/54 39/37/56 44/37/55 
s 60
f 45/38/57 44/37/55 39/37/56 
s 61
f 39/37/56 40/38/58 45/38/57 
s 62
f 46/28/59 45/38/57 40/38/58 
s 63
f 40/38/58 30/28/60 46/28/59 
s 64
f 19/16/61 23/18/62 47/40/63 
s 65
f 47/40/63 48/41/64 19/16/61 
s 66
f 19/16/61 48/41/64 49/42/65 
s 67
f 49/42/65 20/17/66 19/16/61 
s 68
f 50/30/67 20/17/66 49/42/65 
s 69
f 49/42/65 51/43/68 50/30/67 
s 70
f 50/30/67 51/43/68 52/44/69 
s 71
f 52/44/69 53/27/70 50/30/67 
s 72
f 46/28/71 53/27/70 52/44/69 
s 73
f 52/44/69 54/45/72 46/28/71 
s 74
f 46/28/71 54/45/72 55/46/73 
s 75
f 55/46/73 45/38/74 46/28/71 
s 76
f 45/38/74 55/46/73 56/47/75 
s 77
f 56/47/75 44/37/76 45/38/74 
s 78
f 44/37/76 56/47/75 57/48/77 
s 79
f 57/48/77 43/35/78 44/37/76 
s 80
f 42/33/79 43/35/78 57/48/77 
s 81
f 57/48/77 58/49/80 42/33/79 
s 82
f 42/33/79 58/49/80 59/50/81 
s 83
f 59/50/81 41/34/82 42/33/79 
s 84
f 41/34/82 59/50/81 60/51/83 
s 85
f 60/51/83 17/39/84 41/34/82 
s 86
f 61/52/85 60/53/83 62/54/86 
s 87
f 63/55/87 62/54/86 60/53/83 
s 88
f 64/56/88 62/54/86 63/55/87 
s 89
f 64/56/88 63/55/87 65/57/89 
s 90
f 64/56/88 65/57/89 66/58/90 
s 91
f 64/56/88 66/58/90 67/59/91 
s 92
f 64/56/88 67/59/91 68/60/92 
s 93
f 64/56/88 68/60/92 69/61/93 
s 94
f 64/56/88 69/61/93 70/62/94 
s 95
f 64/56/88 70/62/94 71/63/95 
s 96
f 64/56/88 71/63/95 72/64/96 
s 97
f 64/56/88 72/64/96 73/65/97 
s 98
f 64/56/88 73/65/97 74/66/98 
s 99
f 64/56/88 74/66/98 75/67/99 
s 100
f 64/56/88 75/67/99 76/68/100 
s 101
f 64/56/88 76/68/100 77/69/101 
s 102
f 55/70/73 54/71/72 69/61/93 
s 103
f 70/62/94 69/61/93 54/71/72 
s 104
f 54/71/72 52/72/69 70/62/94 
s 105
f 71/63/95 70/62/94 52/72/69 
s 106
f 52/72/69 51/73/68 71/63/95 
s 107
f 72/64/96 71/63/95 51/73/68 
s 108
f 51/73/68 49/74/65 72/64/96 
s 109
f 73/65/97 72/64/96 49/74/65 
s 110
f 49/74/65 48/75/64 73/65/97 
s 111
f 74/66/98 73/65/97 48/75/64 
s 112
f 48/75/64 47/76/63 74/66/98 
s 113
f 75/67/99 74/66/98 47/76/63 
s 114
f 47/76/63 78/77/102 75/67/99 
s 115
f 76/68/100 75/67/99 78/77/102 
s 116
f 78/77/102 79/78/103 76/68/100 
s 117
f 77/69/101 76/68/100 79/78/103 
s 118
f 79/78/103 80/79/104 77/69/101 
s 119
f 64/56/88 77/69/101 80/79/104 
s 120
f 80/79/104 61/52/85 64/56/88 
s 121
f 62/54/86 64/56/88 61/52/85 
s 122
f 7/7/1 38/36/1 11/11/1 
s 123
f 7/7/1 11/11/1 8/8/1 
s 124
f 10/10/1 34/32/1 33/31/1 
s 125
f 10/10/1 33/31/1 8/8/1 
s 126
f 33/31/1 31/29/1 8/8/1 
s 127
f 60/53/83 59/80/81 63/55/87 
s 128
f 65/57/105 63/55/105 59/80/81 
s 129
f 59/80/81 58/81/80 65/57/89 
s 130
f 66/58/90 65/57/89 58/81/80 
s 131
f 58/81/80 57/82/77 66/58/90 
s 132
f 67/59/91 66/58/90 57/82/77 
s 133
f 57/82/77 56/83/75 67/59/91 
s 134
f 68/60/92 67/59/91 56/83/75 
s 135
f 56/83/75 55/70/73 68/60/92 
s 136
f 69/61/93 68/60/92 55/70/73 
s 137
f 17/15/84 60/84/83 61/85/85 
s 138
f 61/85/85 13/13/106 17/15/84 
s 139
f 14/14/107 13/13/106 61/85/85 
s 140
f 61/85/85 80/86/104 14/14/107 
s 141
f 14/14/107 80/86/104 79/87/103 
s 142
f 79/87/103 27/20/108 14/14/107 
s 143
f 25/19/109 27/20/108 79/87/103 
s 144
f 79/87/103 78/88/102 25/19/109 
s 145
f 23/18/110 25/19/109 78/88/102 
s 146
f 78/88/102 47/40/63 23/18/110 
s 147
f 36/89/41 18/90/19 1/90/19 
s 148
f 1/90/19 12/89/41 36/89/41 
s 149
f 53/27/111 46/28/112 30/28/113 
s 150
f 30/28/113 29/27/114 53/27/111 
s 151
f 50/30/115 53/27/116 29/27/117 
s 152
f 29/27/117 32/30/118 50/30/115 
s 153
f 20/17/119 50/30/119 32/30/119 
s 154
f 32/30/119 21/17/120 20/17/119 
s 155
f 14/14/121 27/20/122 28/20/123 
s 156
f 28/20/123 15/14/124 14/14/121 
# 156 faces

