# 3ds Max Wavefront OBJ Exporter v0.97b - (c)2007 guruware
# File Created: 05.03.2018 11:33:43

mtllib VodkaShard.mtl

#
# object VodkaShard
#

v  -3.9414 6.8438 -0.6069
v  -2.1250 2.9551 0.6064
v  -2.1250 10.4375 0.6064
v  -2.1563 10.4375 0.1349
v  -3.9727 6.8438 -1.0781
v  -2.1563 2.9551 0.1349
v  0.0171 12.9219 1.0322
v  -0.0143 12.9219 0.5610
v  3.9766 5.2734 -0.6069
v  2.1582 0.0475 0.6064
v  2.1270 0.0475 0.1349
v  3.9453 5.2734 -1.0781
v  2.1582 7.4180 0.6064
v  2.1270 7.4180 0.1349
v  0.0171 2.1758 1.0322
v  -0.0143 2.1758 0.5610
# 16 vertices

vn -0.5555 0.0000 0.8315
vn -0.3826 0.0000 0.9239
vn -0.8988 0.4342 0.0596
vn -0.8365 0.5451 0.0554
vn -0.9115 -0.4069 0.0604
vn -0.9115 -0.4069 0.0605
vn -0.7607 0.6472 0.0507
vn -0.7607 0.6472 0.0506
vn 0.9381 -0.3408 -0.0622
vn 0.8642 0.4999 -0.0573
vn 0.7478 0.6621 -0.0496
vn 0.8400 0.5398 -0.0557
vn 0.9285 0.3660 -0.0618
vn 0.9285 0.3660 -0.0619
vn -0.3458 -0.9380 0.0230
vn -0.3458 -0.9380 0.0229
vn -0.3761 -0.9262 0.0250
vn -0.6995 -0.7131 0.0464
vn -0.6995 -0.7131 0.0466
vn -0.2792 0.0000 -0.9602
vn -0.5549 0.0000 -0.8319
vn -0.3199 0.0000 -0.9474
vn -0.0621 0.0000 -0.9981
vn 0.0621 0.0000 -0.9981
vn 0.2645 0.0000 -0.9644
vn 0.2746 0.0000 -0.9615
vn 0.5554 0.0000 -0.8316
vn 0.0620 0.0000 0.9981
vn -0.0620 0.0000 0.9981
vn 0.2792 0.0000 0.9602
vn 0.3199 0.0000 0.9475
vn 0.5551 0.0000 0.8318
# 32 vertex normals

vt 0.6157 0.4448 0.4448
vt 0.6538 0.3794 0.3794
vt 0.6538 0.5059 0.5059
vt 0.0133 0.5059 0.5059
vt 0.0534 0.5479 0.5479
vt 0.1335 0.4185 0.4185
vt 0.0934 0.3301 0.3301
vt 0.0934 0.4546 0.4546
vt 0.0534 0.3662 0.3662
vt 0.0133 0.3794 0.3794
vt 0.0886 0.0688 0.0688
vt 0.0350 0.0547 0.0547
vt 0.0886 0.0200 0.0200
vt 0.1517 0.0342 0.0342
vt 0.1517 0.1055 0.1055
vt 0.2150 0.0894 0.0894
vt 0.2150 0.0396 0.0396
vt 0.2683 0.0654 0.0654
# 18 texture coords

g VodkaShard
usemtl vodkanocube_shader
s 1
f 1/1/1 2/2/2 3/3/2 
s 2
f 1/1/3 3/3/4 4/3/4 
s 3
f 4/3/4 5/1/3 1/1/3 
s 4
f 2/2/5 1/1/6 5/1/5 
s 5
f 5/1/5 6/2/5 2/2/5 
s 6
f 3/4/4 7/5/7 8/5/8 
s 7
f 8/5/8 4/4/4 3/4/4 
s 8
f 9/6/9 10/7/9 11/7/9 
s 9
f 11/7/9 12/6/9 9/6/9 
s 10
f 13/8/10 9/6/11 12/6/11 
s 11
f 12/6/11 14/8/12 13/8/10 
s 12
f 7/5/13 13/8/10 14/8/12 
s 13
f 14/8/12 8/5/14 7/5/13 
s 14
f 15/9/15 2/10/16 6/10/16 
s 15
f 6/10/16 16/9/17 15/9/15 
s 16
f 10/7/18 15/9/19 16/9/19 
s 17
f 16/9/17 11/7/18 10/7/18 
s 18
f 14/11/20 12/12/21 11/13/22 
s 19
f 14/11/20 11/13/22 16/14/23 
s 20
f 16/14/23 8/15/24 14/11/20 
s 21
f 4/16/25 8/15/24 16/14/23 
s 22
f 16/14/23 6/17/26 4/16/25 
s 23
f 6/17/26 5/18/27 4/16/25 
s 24
f 3/4/2 2/10/2 15/9/28 
s 25
f 15/9/28 7/5/29 3/4/2 
s 26
f 13/8/30 7/5/29 15/9/28 
s 27
f 15/9/28 10/7/31 13/8/30 
s 28
f 9/6/32 13/8/30 10/7/31 
# 28 faces

