# 3ds Max Wavefront OBJ Exporter v0.97b - (c)2007 guruware
# File Created: 09.05.2019 21:40:33

mtllib Rap_drink.mtl

#
# object PU_Soda
#

v  -12.4223 5.7772 -0.0000
v  -12.4223 0.0012 -0.0000
v  -8.7838 0.0012 8.7838
v  -8.7838 5.7772 8.7838
v  -8.7838 48.8798 8.7838
v  0.0000 0.0012 12.4223
v  0.0000 5.7772 12.4223
v  8.7838 0.0012 8.7838
v  8.7838 5.7772 8.7838
v  12.4223 0.0012 -0.0000
v  12.4223 5.7772 -0.0000
v  8.7838 0.0012 -8.7838
v  8.7838 5.7772 -8.7838
v  0.0000 5.7772 -12.4223
v  0.0000 48.8798 -12.4223
v  8.7838 48.8798 -8.7838
v  12.4223 48.8798 -0.0000
v  8.7838 48.8798 8.7838
v  0.0000 48.8798 12.4223
v  0.0000 72.2140 6.4034
v  -4.5280 72.2140 4.5280
v  -8.7838 48.8798 -8.7838
v  -4.5280 72.2140 -4.5280
v  0.0000 72.2140 -6.4034
v  4.5280 72.2140 -4.5280
v  6.4034 72.2140 -0.0000
v  4.5280 72.2140 4.5280
v  -12.4223 48.8798 -0.0000
v  -6.4034 72.2140 -0.0000
v  -4.0452 97.8626 -4.0452
v  0.0000 97.8626 -5.7210
v  4.0452 97.8626 -4.0452
v  5.7210 97.8626 -0.0000
v  4.0452 97.8626 4.0452
v  -5.7210 97.8626 -0.0000
v  0.0000 97.8626 5.7210
v  -4.0452 97.8626 4.0452
v  0.0000 101.5218 -5.3191
v  -3.7611 101.5218 -3.7611
v  -5.3191 101.5218 -0.0000
v  0.0000 101.5218 5.3191
v  -3.7611 101.5218 3.7611
v  5.3191 101.5218 -0.0000
v  3.7611 101.5218 -3.7611
v  3.7611 101.5218 3.7611
v  -4.7541 98.5163 4.7541
v  0.0000 98.5163 6.7236
v  4.7541 98.5163 4.7541
v  6.7236 98.5163 -0.0000
v  4.7541 98.5163 -4.7541
v  0.0000 98.5163 -6.7236
v  -4.7541 98.5163 -4.7541
v  -6.7236 98.5163 -0.0000
v  -8.7838 0.0012 -8.7838
v  0.0000 0.0012 -12.4223
v  -8.7838 5.7772 -8.7838
# 56 vertices

vn -1.0000 0.0000 -0.0000
vn -0.8795 -0.4760 0.0000
vn -0.5000 -0.7071 0.5000
vn -0.7071 0.0000 0.7071
vn -0.7018 0.1222 0.7018
vn 0.0000 -0.7071 0.7071
vn 0.0000 0.0000 1.0000
vn 0.5000 -0.7071 0.5000
vn 0.7071 0.0000 0.7071
vn 0.7071 -0.7071 -0.0000
vn 1.0000 0.0000 -0.0000
vn 0.5000 -0.7071 -0.5000
vn 0.7071 0.0000 -0.7071
vn -0.0000 0.0000 -1.0000
vn 0.0000 0.1222 -0.9925
vn 0.7018 0.1222 -0.7018
vn 0.9925 0.1222 0.0000
vn 0.7018 0.1222 0.7018
vn -0.0000 0.1222 0.9925
vn -0.0000 0.1430 0.9897
vn -0.6998 0.1430 0.6998
vn -0.7018 0.1222 -0.7018
vn -0.6998 0.1430 -0.6998
vn 0.0000 0.1430 -0.9897
vn 0.6998 0.1430 -0.6998
vn 0.9897 0.1430 0.0000
vn 0.6998 0.1430 0.6998
vn -0.9925 0.1222 -0.0000
vn -0.9897 0.1430 -0.0000
vn -0.6262 -0.4646 -0.6261
vn 0.0000 -0.4646 -0.8855
vn 0.6261 -0.4646 -0.6262
vn 0.8855 -0.4646 0.0000
vn 0.6262 -0.4646 0.6261
vn -0.9498 -0.3129 -0.0000
vn -0.0000 -0.4646 0.8855
vn -0.6261 -0.4646 0.6262
vn 0.0000 0.7853 -0.6191
vn -0.4378 0.7853 -0.4378
vn -0.6191 0.7853 -0.0000
vn -0.0000 0.7853 0.6191
vn -0.4378 0.7853 0.4378
vn 0.6191 0.7853 0.0000
vn 0.4378 0.7853 -0.4378
vn 0.4378 0.7853 0.4378
vn -0.6865 -0.2398 0.6865
vn -0.0000 -0.2397 0.9708
vn 0.6865 -0.2398 0.6865
vn 0.9708 -0.2397 0.0000
vn 0.6865 -0.2398 -0.6865
vn 0.0000 -0.2397 -0.9708
vn -0.6865 -0.2398 -0.6865
vn -0.9708 -0.2397 -0.0000
vn -0.5000 -0.7071 -0.5000
vn 0.0000 -0.7071 -0.7071
vn -0.7071 0.0000 -0.7071
# 56 vertex normals

vt 0.0086 0.0645 0.0645
vt 0.0051 0.0313 0.0313
vt 0.0591 0.0234 0.0234
vt 0.0622 0.0562 0.0562
vt 0.0847 0.2983 0.2983
vt 0.1147 0.0151 0.0151
vt 0.1169 0.0479 0.0479
vt 0.1716 0.0103 0.0103
vt 0.1727 0.0425 0.0425
vt 0.2292 0.0083 0.0083
vt 0.2292 0.0405 0.0405
vt 0.2869 0.0103 0.0103
vt 0.2856 0.0425 0.0425
vt 0.3416 0.0479 0.0479
vt 0.3247 0.2900 0.2900
vt 0.2769 0.2852 0.2852
vt 0.2291 0.2837 0.2837
vt 0.1815 0.2852 0.2852
vt 0.1335 0.2900 0.2900
vt 0.1598 0.4219 0.4219
vt 0.1266 0.4268 0.4268
vt 0.3735 0.2983 0.2983
vt 0.3315 0.4272 0.4272
vt 0.2983 0.4219 0.4219
vt 0.2639 0.4189 0.4189
vt 0.2290 0.4180 0.4180
vt 0.1942 0.4189 0.4189
vt 0.4238 0.3105 0.3105
vt 0.3621 0.4355 0.4355
vt 0.3025 0.5696 0.5696
vt 0.2783 0.5654 0.5654
vt 0.2537 0.5632 0.5632
vt 0.2290 0.5625 0.5625
vt 0.2042 0.5632 0.5632
vt 0.3264 0.5752 0.5752
vt 0.1797 0.5654 0.5654
vt 0.1554 0.5696 0.5696
vt 0.1316 0.5750 0.5750
vt 0.0959 0.4351 0.4351
vt 0.0345 0.3105 0.3105
vt 0.4399 0.3926 0.3926
vt 0.4585 0.3999 0.3999
vt 0.4661 0.4185 0.4185
vt 0.4399 0.4448 0.4448
vt 0.4585 0.4370 0.4370
vt 0.4136 0.4185 0.4185
vt 0.4214 0.3999 0.3999
vt 0.4214 0.4370 0.4370
vt 0.4685 0.4473 0.4473
vt 0.4399 0.4595 0.4595
vt 0.4111 0.4473 0.4473
vt 0.3992 0.4185 0.4185
vt 0.4111 0.3901 0.3901
vt 0.4399 0.3779 0.3779
vt 0.4399 0.4624 0.4624
vt 0.4089 0.4497 0.4497
vt 0.3962 0.4185 0.4185
vt 0.4089 0.3877 0.3877
vt 0.4399 0.3750 0.3750
vt 0.4685 0.3901 0.3901
vt 0.4707 0.3877 0.3877
vt 0.4805 0.4185 0.4185
vt 0.4834 0.4185 0.4185
vt 0.4707 0.4497 0.4497
vt 0.1172 0.5493 0.5493
vt 0.1008 0.5891 0.5891
vt 0.0610 0.6057 0.6057
vt 0.0610 0.4932 0.4932
vt 0.0047 0.5493 0.5493
vt 0.0212 0.5095 0.5095
vt 0.0212 0.5891 0.5891
vt 0.1008 0.5095 0.5095
vt 0.3438 0.0156 0.0156
vt 0.3994 0.0239 0.0239
vt 0.3962 0.0562 0.0562
vt 0.4534 0.0317 0.0317
vt 0.4500 0.0645 0.0645
# 77 texture coords

o PU_Soda
g PU_Soda
usemtl PickUps_MAT_pickups
s 1
f 1/1/1 2/2/2 3/3/3 
f 1/1/1 4/4/4 5/5/5 
f 3/3/3 4/4/4 1/1/1 
f 4/4/4 3/3/3 6/6/6 
f 6/6/6 7/7/7 4/4/4 
f 7/7/7 6/6/6 8/8/8 
f 8/8/8 9/9/9 7/7/7 
f 9/9/9 8/8/8 10/10/10 
f 10/10/10 11/11/11 9/9/9 
f 11/11/11 10/10/10 12/12/12 
f 12/12/12 13/13/13 11/11/11 
f 13/13/13 14/14/14 15/15/15 
f 15/15/15 16/16/16 13/13/13 
f 11/11/11 13/13/13 16/16/16 
f 16/16/16 17/17/17 11/11/11 
f 9/9/9 11/11/11 17/17/17 
f 17/17/17 18/18/18 9/9/9 
f 7/7/7 9/9/9 18/18/18 
f 18/18/18 19/19/19 7/7/7 
f 4/4/4 7/7/7 19/19/19 
f 19/19/19 5/5/5 4/4/4 
f 5/5/5 19/19/19 20/20/20 
f 20/20/20 21/21/21 5/5/5 
f 15/15/15 22/22/22 23/23/23 
f 23/23/23 24/24/24 15/15/15 
f 16/16/16 15/15/15 24/24/24 
f 24/24/24 25/25/25 16/16/16 
f 17/17/17 16/16/16 25/25/25 
f 25/25/25 26/26/26 17/17/17 
f 18/18/18 17/17/17 26/26/26 
f 26/26/26 27/27/27 18/18/18 
f 19/19/19 18/18/18 27/27/27 
f 27/27/27 20/20/20 19/19/19 
f 22/22/22 28/28/28 29/29/29 
f 29/29/29 23/23/23 22/22/22 
f 30/30/30 23/23/23 29/29/29 
f 23/23/23 30/30/30 31/31/31 
f 31/31/31 24/24/24 23/23/23 
f 24/24/24 31/31/31 32/32/32 
f 32/32/32 25/25/25 24/24/24 
f 25/25/25 32/32/32 33/33/33 
f 33/33/33 26/26/26 25/25/25 
f 26/26/26 33/33/33 34/34/34 
f 29/29/29 35/35/35 30/30/30 
f 34/34/34 27/27/27 26/26/26 
f 27/27/27 34/34/34 36/36/36 
f 36/36/36 20/20/20 27/27/27 
f 20/20/20 36/36/36 37/37/37 
f 37/37/37 21/21/21 20/20/20 
f 21/21/21 37/37/37 35/38/35 
f 35/38/35 29/39/29 21/21/21 
f 21/21/21 29/39/29 28/40/28 
f 28/40/28 5/5/5 21/21/21 
f 5/5/5 28/40/28 1/1/1 
f 38/41/38 39/42/39 40/43/40 
f 38/41/38 40/43/40 41/44/41 
f 40/43/40 42/45/42 41/44/41 
f 43/46/43 44/47/44 38/41/38 
f 43/46/43 38/41/38 41/44/41 
f 45/48/45 43/46/43 41/44/41 
f 41/44/41 42/45/42 46/49/46 
f 46/49/46 47/50/47 41/44/41 
f 45/48/45 41/44/41 47/50/47 
f 47/50/47 48/51/48 45/48/45 
f 43/46/43 45/48/45 48/51/48 
f 48/51/48 49/52/49 43/46/43 
f 44/47/44 43/46/43 49/52/49 
f 49/52/49 50/53/50 44/47/44 
f 38/41/38 44/47/44 50/53/50 
f 50/53/50 51/54/51 38/41/38 
f 48/51/48 47/50/47 36/55/36 
f 36/55/36 34/56/34 48/51/48 
f 49/52/49 48/51/48 34/56/34 
f 34/56/34 33/57/33 49/52/49 
f 50/53/50 49/52/49 33/57/33 
f 33/57/33 32/58/32 50/53/50 
f 51/54/51 50/53/50 32/58/32 
f 32/58/32 31/59/31 51/54/51 
f 52/60/52 51/54/51 31/59/31 
f 31/59/31 30/61/30 52/60/52 
f 53/62/53 52/60/52 30/61/30 
f 30/61/30 35/63/35 53/62/53 
f 39/42/39 38/41/38 51/54/51 
f 51/54/51 52/60/52 39/42/39 
f 40/43/40 39/42/39 52/60/52 
f 52/60/52 53/62/53 40/43/40 
f 42/45/42 40/43/40 53/62/53 
f 53/62/53 46/49/46 42/45/42 
f 46/49/46 53/62/53 35/63/35 
f 35/63/35 37/64/37 46/49/46 
f 47/50/47 46/49/46 37/64/37 
f 37/64/37 36/55/36 47/50/47 
f 2/65/2 54/66/54 55/67/55 
f 2/65/2 55/67/55 6/68/6 
f 55/67/55 10/69/10 6/68/6 
f 10/69/10 8/70/8 6/68/6 
f 55/67/55 12/71/12 10/69/10 
f 3/72/3 2/65/2 6/68/6 
f 13/13/13 12/12/12 55/73/55 
f 55/73/55 14/14/14 13/13/13 
f 14/14/14 55/73/55 54/74/54 
f 54/74/54 56/75/56 14/14/14 
f 56/75/56 54/74/54 2/76/2 
f 2/76/2 1/77/1 56/75/56 
f 56/75/56 1/77/1 28/28/28 
f 28/28/28 22/22/22 56/75/56 
f 14/14/14 56/75/56 22/22/22 
f 22/22/22 15/15/15 14/14/14 
# 0 polygons - 108 triangles

