# 3ds Max Wavefront OBJ Exporter v0.97b - (c)2007 guruware
# File Created: 04.09.2017 19:09:13

mtllib Whisky_Shard.mtl

#
# object WhiskyShard
#

v  1.5508 5.6563 0.3477
v  1.5508 -0.0988 0.3477
v  2.4199 5.5508 0.5483
v  -2.3770 3.7852 -0.0737
v  -3.1309 3.0762 -0.0737
v  -2.6719 0.9170 -0.0737
v  -1.6953 0.5693 -0.0737
v  -0.0235 8.1797 0.0603
v  -1.6953 5.3555 -0.0737
v  -0.0235 -2.4063 0.0603
v  -2.1582 4.0977 -0.8032
v  -2.3770 3.7852 -0.8032
v  -2.1582 4.0977 -0.0737
v  -3.1309 3.0762 -0.8032
v  -2.6719 0.9170 -0.8032
v  -1.6953 0.5693 -0.8032
v  -1.6953 5.3555 -0.8032
v  -0.0235 -2.4063 -0.6689
v  -0.0235 8.1797 -0.6689
v  1.5508 -0.0988 -0.3816
v  1.5508 5.6563 -0.3816
v  2.4199 5.5508 -0.1812
# 22 vertices

vn -0.2250 0.0000 0.9744
vn 0.0000 0.0000 1.0000
vn -0.0799 0.0000 0.9968
vn -0.1796 0.0000 0.9837
vn -0.8192 0.5735 -0.0000
vn -0.6851 0.7285 -0.0000
vn -0.9781 -0.2079 -0.0000
vn -0.3354 -0.9421 -0.0000
vn -0.9385 0.3454 -0.0000
vn -0.8718 -0.4898 -0.0000
vn -0.8605 0.5094 -0.0000
vn 0.8261 -0.5636 -0.0000
vn 0.8484 0.5293 -0.0000
vn 0.9884 -0.1521 -0.0000
vn 0.1205 0.9927 -0.0000
vn 0.0557 0.0000 -0.9984
vn 0.0000 0.0000 -1.0000
vn 0.0705 0.0000 -0.9975
vn 0.1313 0.0000 -0.9913
vn 0.1341 0.0000 -0.9910
vn 0.1822 0.0000 -0.9833
vn 0.1959 0.0000 -0.9806
vn 0.2247 0.0000 -0.9744
# 23 vertex normals

vt 0.8579 0.5620 0.5620
vt 0.8579 0.4893 0.4893
vt 0.9072 0.5605 0.5605
vt 0.6748 0.5383 0.5383
vt 0.6318 0.5293 0.5293
vt 0.6577 0.5020 0.5020
vt 0.7134 0.4976 0.4976
vt 0.7681 0.5940 0.5940
vt 0.7134 0.5581 0.5581
vt 0.7681 0.4600 0.4600
vt 0.6064 0.5850 0.5850
vt 0.5996 0.5439 0.5439
vt 0.6001 0.5439 0.5439
vt 0.6069 0.5850 0.5850
vt 0.5762 0.5286 0.5286
vt 0.5903 0.4824 0.4824
vt 0.5908 0.4824 0.4824
vt 0.6211 0.4751 0.4751
vt 0.6216 0.4751 0.4751
vt 0.6211 0.6460 0.6460
vt 0.6216 0.6460 0.6460
vt 0.6519 0.4111 0.4111
vt 0.6211 0.4619 0.4619
vt 0.6270 0.7156 0.7156
vt 0.6094 0.7156 0.7156
vt 0.6035 0.4619 0.4619
vt 0.5835 0.4126 0.4126
vt 0.5679 0.4648 0.4648
vt 0.5464 0.4648 0.4648
vt 0.5615 0.4126 0.4126
vt 0.5679 0.6812 0.6812
vt 0.5835 0.5454 0.5454
vt 0.5615 0.5454 0.5454
vt 0.5464 0.6812 0.6812
vt 0.5566 0.6387 0.6387
vt 0.5352 0.6387 0.6387
vt 0.8203 0.4995 0.4995
vt 0.8765 0.5037 0.5037
vt 0.9023 0.5291 0.5291
vt 0.8594 0.5374 0.5374
vt 0.8472 0.5601 0.5601
vt 0.8203 0.5559 0.5559
vt 0.7651 0.5891 0.5891
vt 0.7651 0.4648 0.4648
vt 0.6748 0.4917 0.4917
vt 0.6748 0.5593 0.5593
vt 0.6250 0.5581 0.5581
vt 0.6870 0.5625 0.5625
# 48 texture coords

g WhiskyShard
usemtl WhiskyNoCube_Shader
s 1
f 1/1/1 2/2/1 3/3/1 
s 2
f 4/4/2 5/5/2 6/6/2 
s 3
f 4/4/2 6/6/2 7/7/2 
s 4
f 8/8/3 9/9/3 7/7/3 
s 5
f 7/7/3 10/10/3 8/8/3 
s 6
f 2/2/4 1/1/4 8/8/4 
s 7
f 8/8/4 10/10/4 2/2/4 
s 8
f 11/11/5 12/12/5 4/13/5 
s 9
f 4/13/5 13/14/5 11/11/5 
s 10
f 12/12/6 14/15/6 5/15/6 
s 11
f 5/15/6 4/13/6 12/12/6 
s 12
f 14/15/7 15/16/7 6/17/7 
s 13
f 6/17/7 5/15/7 14/15/7 
s 14
f 15/16/8 16/18/8 7/19/8 
s 15
f 7/19/8 6/17/8 15/16/8 
s 16
f 17/20/9 11/11/9 13/14/9 
s 17
f 13/14/9 9/21/9 17/20/9 
s 18
f 16/18/10 18/22/10 10/22/10 
s 19
f 10/22/10 7/19/10 16/18/10 
s 20
f 19/23/11 17/24/11 9/25/11 
s 21
f 9/25/11 8/26/11 19/23/11 
s 22
f 18/27/12 20/28/12 2/29/12 
s 23
f 2/29/12 10/30/12 18/27/12 
s 24
f 21/31/13 19/32/13 8/33/13 
s 25
f 8/33/13 1/34/13 21/31/13 
s 26
f 20/28/14 22/35/14 3/36/14 
s 27
f 3/36/14 2/29/14 20/28/14 
s 28
f 22/35/15 21/31/15 1/34/15 
s 29
f 1/34/15 3/36/15 22/35/15 
s 30
f 16/37/16 15/38/17 14/39/17 
s 31
f 16/37/16 14/39/17 12/40/17 
s 32
f 11/41/17 16/37/17 12/40/17 
s 33
f 11/41/17 17/42/18 16/37/16 
s 34
f 16/37/16 17/42/18 19/43/19 
s 35
f 19/43/19 18/44/20 16/37/16 
s 36
f 20/45/21 18/44/20 19/43/19 
s 37
f 19/43/19 21/46/22 20/45/21 
s 38
f 20/45/21 21/46/22 22/47/23 
s 39
f 7/7/2 13/48/2 4/4/2 
s 40
f 9/9/2 13/48/2 7/7/2 
# 40 faces

