# 3ds Max Wavefront OBJ Exporter v0.97b - (c)2007 guruware
# File Created: 04.09.2017 21:20:44

mtllib Whiskey.mtl

#
# object Whiskey
#

v  -8.2969 0.0369 1.9912
v  -9.7422 0.6367 1.9014
v  -9.7422 0.6367 -2.4473
v  -6.6836 0.0369 1.7871
v  -8.2969 0.0369 -2.9629
v  -8.3672 0.6367 -3.4766
v  -6.6836 0.0369 -3.1680
v  -6.6836 0.6367 -3.6895
v  -3.8105 0.0369 -3.4551
v  -3.8105 0.0369 1.5000
v  -2.0527 0.0369 1.3652
v  3.5215 0.0369 -3.4551
v  3.5215 0.0369 1.5000
v  1.7646 0.0369 1.3652
v  1.7646 0.0369 -3.5898
v  -2.0527 0.0369 -3.5898
v  -3.8105 0.6367 -3.9766
v  -6.6836 27.0625 -3.6895
v  -8.1953 26.5625 -3.5000
v  -2.0527 0.6367 -4.1094
v  1.7646 0.6367 -4.1094
v  3.5215 0.6367 -3.9766
v  6.3945 0.6367 -3.6895
v  -2.0527 27.3906 -4.1094
v  1.7646 27.3906 -4.1094
v  3.5215 27.3438 -3.9766
v  6.3945 27.0625 -3.6895
v  7.9063 26.5625 -3.5000
v  -2.0762 28.8125 -3.2852
v  -3.8105 27.3438 -3.9766
v  1.7891 28.8125 -3.2852
v  3.5898 28.7656 -3.1465
v  6.6719 28.4688 -2.8320
v  8.7344 27.7500 -2.5566
v  9.4531 26.4219 -2.4473
v  6.6719 28.4688 1.5166
v  8.7344 27.7500 1.7910
v  3.5898 28.7656 1.2031
v  -2.0840 28.8125 -1.9766
v  -0.9473 28.8281 -3.1133
v  0.6592 28.8281 -3.1133
v  1.7959 28.8125 -1.9766
v  1.7959 28.8125 -0.3699
v  1.7891 28.8125 1.0645
v  0.6592 28.8281 0.7661
v  -2.0762 28.8125 1.0645
v  -0.9473 28.8281 0.7661
v  -2.0840 28.8125 -0.3699
v  -3.8770 28.7656 1.2031
v  -3.8770 28.7656 -3.1465
v  -9.0234 27.7500 1.7910
v  -9.0234 27.7500 -2.5566
v  -9.7422 26.4219 -2.4473
v  -6.9609 28.4688 -2.8320
v  -6.9609 28.4688 1.5166
v  -9.7422 26.4219 1.9014
v  -8.1953 26.5625 2.4980
v  -6.6836 27.0625 2.3086
v  -3.8105 27.3438 2.0215
v  -3.8105 0.6367 2.0215
v  -2.0527 0.6367 1.8877
v  1.7646 0.6367 1.8877
v  1.7646 27.3906 1.8877
v  -2.0527 27.3906 1.8877
v  3.5215 0.6367 2.0215
v  6.3945 0.0369 1.7871
v  6.3945 0.6367 2.3086
v  8.0078 0.0369 1.9912
v  8.0781 0.6367 2.5215
v  6.3945 27.0625 2.3086
v  7.9063 26.5625 2.4980
v  9.4531 0.6367 1.9014
v  9.4531 26.4219 1.9014
v  3.5215 27.3438 2.0215
v  -1.2002 33.0313 -2.2285
v  -0.1439 33.0313 -2.6660
v  0.9121 33.0313 -2.2285
v  -1.2002 33.0313 -0.1171
v  0.9121 33.0313 -0.1171
v  -0.1439 33.0313 0.3203
v  1.3496 33.0313 -1.1729
v  -1.6377 33.0313 -1.1729
v  1.7959 34.9688 -0.3699
v  1.7959 34.9688 -1.9766
v  0.6592 34.9688 -3.1133
v  -2.0840 34.9688 -1.9766
v  -0.9473 34.9688 -3.1133
v  -0.9473 34.9688 0.7661
v  0.6592 34.9688 0.7661
v  -2.0840 34.9688 -0.3699
v  2.3594 34.8125 -2.2109
v  2.3594 34.8125 -0.1359
v  0.8936 34.8125 1.3311
v  -1.1816 34.8125 1.3311
v  -2.6484 34.8125 -0.1359
v  -2.6484 34.8125 -2.2109
v  -1.1816 34.8125 -3.6777
v  0.8936 34.8125 -3.6777
v  1.5605 36.0313 -2.8789
v  1.5605 36.6250 -2.8789
v  2.2676 36.6250 -1.1729
v  2.2676 36.0313 -1.1729
v  1.5605 36.6250 0.5317
v  1.5605 36.0313 0.5317
v  -0.1439 36.6250 1.2373
v  -0.1439 36.0313 1.2373
v  -1.8486 36.6250 0.5317
v  -1.8486 36.0313 0.5317
v  -0.1439 34.8125 0.6260
v  1.1279 34.8125 0.0992
v  1.6553 34.8125 -1.1729
v  1.1279 34.8125 -2.4453
v  -0.1439 34.8125 -2.9727
v  -0.1439 36.0313 -3.5840
v  -0.1439 36.6250 -3.5840
v  -1.4160 34.8125 -2.4453
v  -1.8486 36.0313 -2.8789
v  -1.8486 36.6250 -2.8789
v  -2.5547 36.6250 -1.1729
v  -1.9434 34.8125 -1.1729
v  -2.5547 36.0313 -1.1729
v  -1.4160 34.8125 0.0992
v  -2.6484 33.7813 -2.2109
v  -1.1816 33.7813 -3.6777
v  0.8936 33.7813 -3.6777
v  2.3594 33.7813 -2.2109
v  2.3594 33.7813 -0.1359
v  0.8936 33.7813 1.3311
v  -1.1816 33.7813 1.3311
v  -2.6484 33.7813 -0.1359
v  -0.9473 33.6250 0.7661
v  0.6592 33.6250 0.7661
v  1.7959 33.6250 -0.3699
v  1.7959 33.6250 -1.9766
v  0.6592 33.6250 -3.1133
v  -0.9473 33.6250 -3.1133
v  -2.0840 33.6250 -1.9766
v  -2.0840 33.6250 -0.3699
v  9.4531 0.6367 -2.4473
v  8.0781 0.6367 -3.4766
v  6.3945 0.0369 -3.1680
v  8.0078 0.0369 -2.9629
v  -6.6836 0.6367 2.3086
v  -8.3672 0.6367 2.5215
# 144 vertices

vn -0.1680 -0.9476 0.2718
vn -0.7008 -0.6174 0.3573
vn -0.8330 -0.4482 -0.3244
vn 0.0465 -0.9093 0.4135
vn -0.1534 -0.9453 -0.2880
vn -0.3468 -0.3254 -0.8797
vn -0.4781 -0.6030 -0.6387
vn -0.0574 -0.8618 -0.5039
vn -0.1052 -0.3478 -0.9316
vn -0.0621 -0.7115 -0.6999
vn 0.0000 -1.0000 -0.0000
vn 0.0481 -0.8367 0.5455
vn 0.0103 -0.9620 0.2729
vn 0.0370 -0.9084 -0.4164
vn -0.0239 -0.9618 0.2728
vn -0.0156 -0.9101 0.4141
vn 0.0163 -0.9057 -0.4236
vn -0.0212 -0.8350 -0.5499
vn -0.0819 -0.3484 -0.9338
vn -0.1611 0.2647 -0.9508
vn -0.3527 0.1855 -0.9171
vn -0.0351 -0.3465 -0.9374
vn 0.0351 -0.3465 -0.9374
vn 0.0815 -0.3545 -0.9315
vn 0.1052 -0.3478 -0.9316
vn -0.0256 0.1746 -0.9843
vn 0.0394 0.2597 -0.9649
vn 0.0988 0.3416 -0.9346
vn 0.0994 0.0000 -0.9950
vn 0.1611 0.2647 -0.9508
vn 0.3528 0.1855 -0.9171
vn -0.0349 0.7895 -0.6128
vn -0.0785 0.4990 -0.8630
vn -0.1001 0.2623 -0.9598
vn 0.0343 0.8606 -0.5081
vn 0.0960 0.8638 -0.4946
vn 0.2353 0.8469 -0.4768
vn 0.6087 0.6696 -0.4256
vn 0.8818 0.2009 -0.4268
vn 0.1316 0.8522 0.5064
vn 0.5700 0.7368 0.3636
vn 0.0094 0.8661 0.4998
vn -0.0239 0.9997 -0.0001
vn -0.0033 0.9976 -0.0690
vn 0.0033 0.9976 -0.0690
vn 0.0238 0.9997 -0.0001
vn 0.0236 0.9997 -0.0000
vn -0.0043 0.8654 0.5011
vn 0.0037 0.9993 0.0384
vn 0.0043 0.8654 0.5011
vn -0.0037 0.9993 0.0384
vn -0.0237 0.9997 -0.0000
vn -0.0179 0.9448 0.3271
vn -0.0260 0.9997 -0.0000
vn -0.0960 0.8638 -0.4945
vn -0.4889 0.7977 0.3530
vn -0.6087 0.6696 -0.4256
vn -0.8818 0.2009 -0.4268
vn -0.2352 0.8469 -0.4768
vn -0.1316 0.8522 0.5064
vn -0.8223 0.2127 0.5278
vn -0.1279 0.1924 0.9730
vn 0.0490 0.2704 0.9615
vn 0.0683 0.2644 0.9620
vn 0.0824 -0.2528 0.9640
vn 0.0359 -0.3532 0.9348
vn -0.0359 -0.3533 0.9348
vn -0.0333 0.2630 0.9642
vn 0.0333 0.2630 0.9642
vn -0.0823 -0.3502 0.9331
vn -0.0465 -0.9093 0.4135
vn -0.1056 -0.3497 0.9309
vn 0.1510 -0.9010 0.4067
vn 0.1397 -0.3363 0.9313
vn -0.0490 0.2704 0.9615
vn 0.1279 0.1924 0.9730
vn 0.7840 -0.4792 0.3946
vn 0.8045 0.2088 0.5561
vn -0.0683 0.2644 0.9620
vn 0.1437 0.9878 0.0595
vn 0.1437 0.9878 -0.0594
vn 0.0594 0.9879 -0.1435
vn -0.1435 0.9879 -0.0594
vn -0.0594 0.9879 -0.1435
vn -0.0593 0.9879 0.1434
vn 0.0594 0.9879 0.1434
vn -0.1435 0.9879 0.0594
vn 0.2291 0.9688 -0.0949
vn 0.2291 0.9688 0.0950
vn 0.0948 0.9689 0.2287
vn -0.0947 0.9689 0.2287
vn -0.2289 0.9688 0.0948
vn -0.2288 0.9688 -0.0948
vn -0.0948 0.9688 -0.2288
vn 0.0948 0.9688 -0.2288
vn 0.6898 -0.2189 -0.6901
vn 0.7069 0.0000 -0.7073
vn 1.0000 0.0000 0.0002
vn 0.9757 -0.2190 0.0001
vn 0.7069 0.0000 0.7074
vn 0.6897 -0.2188 0.6902
vn 0.0000 0.0000 1.0000
vn 0.0000 -0.2187 0.9758
vn -0.7070 0.0000 0.7072
vn -0.6899 -0.2188 0.6900
vn 0.0001 -0.3233 0.9463
vn 0.6690 -0.3234 0.6692
vn 0.9462 -0.3236 0.0001
vn 0.6691 -0.3238 -0.6689
vn -0.0001 -0.3237 -0.9462
vn -0.0001 -0.2188 -0.9758
vn 0.0000 0.0000 -1.0000
vn -0.6690 -0.3237 -0.6691
vn -0.6898 -0.2190 -0.6900
vn -0.7070 0.0000 -0.7072
vn 0.0000 -0.1691 0.9856
vn 0.6969 -0.1691 0.6970
vn 0.9856 -0.1691 -0.0000
vn 0.6969 -0.1693 -0.6969
vn 0.0001 -0.1696 -0.9855
vn -0.6969 -0.1693 -0.6969
vn -1.0000 0.0000 0.0002
vn -0.9856 -0.1691 -0.0000
vn -0.9463 -0.3234 0.0001
vn -0.9758 -0.2187 0.0002
vn -0.6690 -0.3234 0.6692
vn -0.6968 -0.1691 0.6970
vn -0.9239 0.0000 -0.3827
vn -0.3827 0.0000 -0.9239
vn 0.3828 0.0000 -0.9238
vn 0.9239 0.0000 -0.3825
vn 0.9240 0.0000 0.3825
vn 0.3829 0.0000 0.9238
vn -0.3827 0.0000 0.9239
vn -0.9239 0.0000 0.3827
vn -0.0947 -0.9689 0.2287
vn 0.0946 -0.9689 0.2287
vn 0.0948 -0.9689 0.2287
vn 0.2292 -0.9688 0.0948
vn 0.2292 -0.9687 0.0949
vn 0.2292 -0.9688 -0.0949
vn 0.2292 -0.9688 -0.0948
vn 0.0948 -0.9688 -0.2289
vn 0.0949 -0.9688 -0.2288
vn -0.0947 -0.9688 -0.2289
vn -0.0948 -0.9688 -0.2288
vn -0.2289 -0.9688 -0.0947
vn -0.2288 -0.9688 -0.0948
vn -0.2289 -0.9688 0.0948
vn -0.2288 -0.9688 0.0948
vn 0.8041 -0.4708 -0.3630
vn 0.3468 -0.3254 -0.8797
vn 0.0474 -0.9080 -0.4163
vn 0.2450 -0.8871 -0.3911
vn 0.0000 1.0000 -0.0000
vn 0.0752 -0.6542 0.7525
vn 0.1056 -0.3497 0.9309
vn -0.1397 -0.3363 0.9313
vn 0.3825 0.0000 0.9239
vn -0.3825 0.0000 0.9239
vn -0.3837 0.0000 0.9235
vn 0.3837 0.0000 0.9235
vn 0.9238 0.0000 0.3828
vn 0.9243 0.0000 0.3816
vn 0.9239 0.0000 -0.3827
vn 0.3827 0.0000 -0.9239
vn 0.3839 0.0000 -0.9234
vn -0.3839 0.0000 -0.9234
vn -0.9244 0.0000 -0.3815
vn -0.9238 0.0000 0.3828
vn -0.9243 0.0000 0.3816
# 171 vertex normals

vt 0.4800 0.2104 0.2104
vt 0.5088 0.2124 0.2124
vt 0.5088 0.3218 0.3218
vt 0.4475 0.2148 0.2148
vt 0.4795 0.3306 0.3306
vt 0.4810 0.3423 0.3423
vt 0.4473 0.3306 0.3306
vt 0.4473 0.3423 0.3423
vt 0.3894 0.3306 0.3306
vt 0.3894 0.2212 0.2212
vt 0.3540 0.2241 0.2241
vt 0.2419 0.3306 0.3306
vt 0.2418 0.2212 0.2212
vt 0.2771 0.2241 0.2241
vt 0.2773 0.3306 0.3306
vt 0.3540 0.3306 0.3306
vt 0.3894 0.3423 0.3423
vt 0.4473 0.8405 0.8405
vt 0.4775 0.8312 0.8312
vt 0.3540 0.3423 0.3423
vt 0.2773 0.3423 0.3423
vt 0.2419 0.3423 0.3423
vt 0.1841 0.3423 0.3423
vt 0.3540 0.8468 0.8468
vt 0.2773 0.8468 0.8468
vt 0.2419 0.8457 0.8457
vt 0.1841 0.8405 0.8405
vt 0.1538 0.8312 0.8312
vt 0.3545 0.8735 0.8735
vt 0.3894 0.8457 0.8457
vt 0.2769 0.8735 0.8735
vt 0.2406 0.8727 0.8727
vt 0.1786 0.8669 0.8669
vt 0.1371 0.8534 0.8534
vt 0.1227 0.8286 0.8286
vt 0.1791 0.9748 0.9748
vt 0.1377 0.9805 0.9805
vt 0.2408 0.9681 0.9681
vt 0.3545 0.9011 0.9011
vt 0.3318 0.8771 0.8771
vt 0.2996 0.8771 0.8771
vt 0.2769 0.9011 0.9011
vt 0.2769 0.9351 0.9351
vt 0.2769 0.9652 0.9652
vt 0.2996 0.9589 0.9589
vt 0.3545 0.9652 0.9652
vt 0.3318 0.9589 0.9589
vt 0.3545 0.9351 0.9351
vt 0.3904 0.9681 0.9681
vt 0.3909 0.8727 0.8727
vt 0.6162 0.8534 0.8534
vt 0.4941 0.8534 0.8534
vt 0.5088 0.8286 0.8286
vt 0.4529 0.8669 0.8669
vt 0.4524 0.9748 0.9748
vt 0.4937 0.9805 0.9805
vt 0.6016 0.8286 0.8286
vt 0.6328 0.8312 0.8312
vt 0.6577 0.8669 0.8669
vt 0.6631 0.8405 0.8405
vt 0.7212 0.8457 0.8457
vt 0.7212 0.3423 0.3423
vt 0.7563 0.3423 0.3423
vt 0.6016 0.3218 0.3218
vt 0.8330 0.3423 0.3423
vt 0.8330 0.8468 0.8468
vt 0.7563 0.8468 0.8468
vt 0.7197 0.8727 0.8727
vt 0.7212 0.3306 0.3306
vt 0.7563 0.3306 0.3306
vt 0.8330 0.3306 0.3306
vt 0.8682 0.3306 0.3306
vt 0.8682 0.3423 0.3423
vt 0.9263 0.3306 0.3306
vt 0.9263 0.3423 0.3423
vt 0.9585 0.3306 0.3306
vt 0.9600 0.3423 0.3423
vt 0.9263 0.8405 0.8405
vt 0.9565 0.8312 0.8312
vt 0.9873 0.3218 0.3218
vt 0.9873 0.8286 0.8286
vt 0.9731 0.8534 0.8534
vt 0.9316 0.8669 0.8669
vt 0.8682 0.8457 0.8457
vt 0.8696 0.8727 0.8727
vt 0.8335 0.8735 0.8735
vt 0.7559 0.8735 0.8735
vt 0.9722 0.2983 0.2983
vt 0.9360 0.3135 0.3135
vt 0.8999 0.2983 0.2983
vt 0.9722 0.2266 0.2266
vt 0.8999 0.2266 0.2266
vt 0.9360 0.2114 0.2114
vt 0.8853 0.2622 0.2622
vt 0.9873 0.2622 0.2622
vt 0.5225 0.9133 0.9133
vt 0.5225 0.9567 0.9567
vt 0.5532 0.9873 0.9873
vt 0.6270 0.9567 0.9567
vt 0.5967 0.9873 0.9873
vt 0.5967 0.8828 0.8828
vt 0.5532 0.8828 0.8828
vt 0.6270 0.9133 0.9133
vt 0.5073 0.9630 0.9630
vt 0.5073 0.9070 0.9070
vt 0.5469 0.8674 0.8674
vt 0.6025 0.8674 0.8674
vt 0.6426 0.9070 0.9070
vt 0.6426 0.9630 0.9630
vt 0.6025 1.0025 1.0025
vt 0.5469 1.0025 1.0025
vt 0.5889 0.2769 0.2769
vt 0.5889 0.2852 0.2852
vt 0.6108 0.2852 0.2852
vt 0.6108 0.2769 0.2769
vt 0.6323 0.2852 0.2852
vt 0.6323 0.2769 0.2769
vt 0.6543 0.2852 0.2852
vt 0.6543 0.2769 0.2769
vt 0.6763 0.2852 0.2852
vt 0.6763 0.2769 0.2769
vt 0.6543 0.2573 0.2573
vt 0.6323 0.2573 0.2573
vt 0.6108 0.2573 0.2573
vt 0.5889 0.2573 0.2573
vt 0.5669 0.2573 0.2573
vt 0.5669 0.2769 0.2769
vt 0.5669 0.2852 0.2852
vt 0.5454 0.2573 0.2573
vt 0.5454 0.2769 0.2769
vt 0.5454 0.2852 0.2852
vt 0.6543 0.2354 0.2354
vt 0.6323 0.2354 0.2354
vt 0.6108 0.2354 0.2354
vt 0.5889 0.2354 0.2354
vt 0.5669 0.2354 0.2354
vt 0.5454 0.2354 0.2354
vt 0.6978 0.2852 0.2852
vt 0.7197 0.2573 0.2573
vt 0.7197 0.2354 0.2354
vt 0.6978 0.2354 0.2354
vt 0.6978 0.2573 0.2573
vt 0.7197 0.2769 0.2769
vt 0.6978 0.2769 0.2769
vt 0.7197 0.2852 0.2852
vt 0.6763 0.2573 0.2573
vt 0.6763 0.2354 0.2354
vt 0.7705 0.9855 0.9855
vt 0.7705 0.9921 0.9921
vt 0.7930 0.9921 0.9921
vt 0.7930 0.9855 0.9855
vt 0.8154 0.9921 0.9921
vt 0.8154 0.9855 0.9855
vt 0.8384 0.9921 0.9921
vt 0.8384 0.9855 0.9855
vt 0.6572 0.9855 0.9855
vt 0.6572 0.9921 0.9921
vt 0.6802 0.9921 0.9921
vt 0.6802 0.9855 0.9855
vt 0.7026 0.9921 0.9921
vt 0.7026 0.9855 0.9855
vt 0.7251 0.9921 0.9921
vt 0.7251 0.9855 0.9855
vt 0.7480 0.9921 0.9921
vt 0.7480 0.9855 0.9855
vt 0.7251 0.9771 0.9771
vt 0.7026 0.9771 0.9771
vt 0.6802 0.9771 0.9771
vt 0.6572 0.9771 0.9771
vt 0.8384 0.9771 0.9771
vt 0.8154 0.9771 0.9771
vt 0.7930 0.9771 0.9771
vt 0.7705 0.9771 0.9771
vt 0.7480 0.9771 0.9771
vt 0.0097 0.8552 0.8552
vt 0.0332 0.8286 0.8286
vt 0.0332 0.3203 0.3203
vt 0.1227 0.3218 0.3218
vt 0.1504 0.3423 0.3423
vt 0.1841 0.3306 0.3306
vt 0.1223 0.2124 0.2124
vt 0.1515 0.2104 0.2104
vt 0.1517 0.3306 0.3306
vt 0.1840 0.2148 0.2148
vt 0.8047 0.3242 0.3242
vt 0.8584 0.3022 0.3022
vt 0.8804 0.2490 0.2490
vt 0.7295 0.2490 0.2490
vt 0.7515 0.3022 0.3022
vt 0.8047 0.1738 0.1738
vt 0.8584 0.1958 0.1958
vt 0.7515 0.1958 0.1958
vt 0.6631 0.3306 0.3306
vt 0.6309 0.3306 0.3306
vt 0.6631 0.3423 0.3423
vt 0.6294 0.3423 0.3423
vt 0.7251 0.8959 0.8959
vt 0.7026 0.8959 0.8959
vt 0.6802 0.8958 0.8958
vt 0.6572 0.8958 0.8958
vt 0.8384 0.8958 0.8958
vt 0.8154 0.8959 0.8959
vt 0.7930 0.8959 0.8959
vt 0.7705 0.8958 0.8958
vt 0.7480 0.8958 0.8958
# 205 texture coords

g Whiskey
usemtl _WhiskeyWhisky_Shader
s 1
f 1/1/1 2/2/2 3/3/3 
s 2
f 4/4/4 1/1/1 5/5/5 
s 3
f 3/3/3 5/5/5 1/1/1 
s 4
f 6/6/6 5/5/7 3/3/7 
s 5
f 7/7/8 5/5/5 6/6/6 
s 6
f 6/6/6 8/8/9 7/7/8 
s 7
f 9/9/10 7/7/8 8/8/9 
s 8
f 7/7/11 9/9/11 10/10/12 
s 9
f 11/11/13 10/10/12 9/9/10 
s 10
f 5/5/5 7/7/8 4/4/4 
s 11
f 10/10/12 4/4/4 7/7/8 
s 12
f 12/12/14 13/13/15 14/14/16 
s 13
f 14/14/16 15/15/17 12/12/14 
s 14
f 15/15/17 14/14/16 11/11/13 
s 15
f 11/11/13 16/16/18 15/15/17 
s 16
f 9/9/11 16/16/11 11/11/13 
s 17
f 16/16/18 9/9/10 17/17/19 
s 18
f 8/8/9 17/17/19 9/9/10 
s 19
f 17/17/19 8/8/9 18/18/20 
s 20
f 18/18/20 8/8/9 6/6/6 
s 21
f 6/6/6 19/19/21 18/18/20 
s 22
f 17/17/19 20/20/22 16/16/18 
s 23
f 16/16/18 20/20/22 21/21/23 
s 24
f 21/21/23 15/15/17 16/16/18 
s 25
f 15/15/17 21/21/23 22/22/24 
s 26
f 22/22/24 12/12/14 15/15/17 
s 27
f 12/12/14 22/22/24 23/23/25 
s 28
f 20/20/22 24/24/26 25/25/27 
s 29
f 25/25/27 21/21/23 20/20/22 
s 30
f 21/21/23 25/25/27 26/26/28 
s 31
f 26/26/28 22/22/24 21/21/23 
s 32
f 22/22/29 26/26/29 27/27/30 
s 33
f 27/27/30 23/23/25 22/22/24 
s 34
f 23/23/25 27/27/30 28/28/31 
s 35
f 29/29/32 24/24/33 30/30/34 
s 36
f 25/25/27 24/24/26 29/29/32 
s 37
f 29/29/32 31/31/35 25/25/27 
s 38
f 26/26/28 25/25/27 31/31/35 
s 39
f 31/31/35 32/32/36 26/26/28 
s 40
f 27/27/30 26/26/28 32/32/36 
s 41
f 32/32/36 33/33/37 27/27/30 
s 42
f 28/28/31 27/27/30 33/33/37 
s 43
f 33/33/37 34/34/38 28/28/31 
s 44
f 28/28/31 34/34/38 35/35/39 
s 45
f 36/36/40 37/37/41 34/34/38 
s 46
f 34/34/38 33/33/37 36/36/40 
s 47
f 38/38/42 36/36/40 33/33/37 
s 48
f 33/33/37 32/32/36 38/38/42 
s 49
f 38/38/42 32/32/36 31/31/35 
s 50
f 29/29/32 39/39/43 40/40/44 
s 51
f 29/29/32 40/40/44 31/31/35 
s 52
f 40/40/44 41/41/45 31/31/35 
s 53
f 41/41/45 42/42/46 31/31/35 
s 54
f 38/38/42 31/31/35 42/42/46 
s 55
f 38/38/42 42/42/46 43/43/47 
s 56
f 44/44/48 38/38/42 43/43/47 
s 57
f 44/44/48 43/43/47 45/45/49 
s 58
f 46/46/50 44/44/48 45/45/49 
s 59
f 46/46/50 45/45/49 47/47/51 
s 60
f 46/46/50 47/47/51 48/48/52 
s 61
f 49/49/53 46/46/50 48/48/52 
s 62
f 49/49/53 48/48/52 39/39/43 
s 63
f 49/49/53 39/39/43 29/29/32 
s 64
f 49/49/53 29/29/54 50/50/55 
s 65
f 30/30/34 50/50/55 29/29/32 
s 66
f 50/50/55 30/30/34 18/18/20 
s 67
f 18/18/20 30/30/34 17/17/19 
s 68
f 17/17/19 30/30/34 24/24/26 
s 69
f 24/24/26 20/20/22 17/17/19 
s 70
f 51/51/56 52/52/57 53/53/58 
s 71
f 19/19/21 53/53/58 52/52/57 
s 72
f 19/19/21 52/52/57 54/54/59 
s 73
f 54/54/59 18/18/20 19/19/21 
s 74
f 18/18/20 54/54/59 50/50/55 
s 75
f 49/49/53 50/50/55 54/54/59 
s 76
f 54/54/59 55/55/60 49/49/53 
s 77
f 55/55/60 54/54/59 52/52/57 
s 78
f 52/52/57 51/56/56 55/55/60 
s 79
f 19/19/21 6/6/6 3/3/3 
s 80
f 3/3/3 53/53/58 19/19/21 
s 81
f 56/57/61 53/53/58 3/3/3 
s 82
f 53/53/58 56/57/61 51/51/56 
s 83
f 57/58/62 51/51/56 56/57/61 
s 84
f 55/59/60 51/51/56 57/58/62 
s 85
f 57/58/62 58/60/63 55/59/60 
s 86
f 55/59/60 58/60/63 59/61/64 
s 87
f 60/62/65 59/61/64 58/60/63 
s 88
f 59/61/64 60/62/65 61/63/66 
s 89
f 57/58/62 56/57/61 2/64/2 
s 90
f 3/3/3 2/64/2 56/57/61 
s 91
f 62/65/67 63/66/68 64/67/69 
s 92
f 64/67/69 61/63/66 62/65/67 
s 93
f 61/63/66 64/67/69 59/61/64 
s 94
f 49/68/53 59/61/64 64/67/69 
s 95
f 59/61/64 49/68/53 55/59/60 
s 96
f 61/63/66 60/62/65 10/69/12 
s 97
f 10/69/12 11/70/13 61/63/66 
s 98
f 61/63/66 11/70/13 14/71/16 
s 99
f 14/71/16 62/65/67 61/63/66 
s 100
f 62/65/67 14/71/16 13/72/15 
s 101
f 13/72/15 65/73/70 62/65/67 
s 102
f 65/73/70 13/72/15 66/74/71 
s 103
f 66/74/71 67/75/72 65/73/70 
s 104
f 67/75/72 66/74/71 68/76/73 
s 105
f 68/76/73 69/77/74 67/75/72 
s 106
f 65/73/70 67/75/72 70/78/75 
s 107
f 71/79/76 70/78/75 67/75/72 
s 108
f 67/75/72 69/77/74 71/79/76 
s 109
f 69/77/74 68/76/73 72/80/77 
s 110
f 71/79/76 69/77/74 72/80/77 
s 111
f 72/80/77 73/81/78 71/79/76 
s 112
f 71/79/76 73/81/78 37/82/41 
s 113
f 71/79/76 37/82/41 36/83/40 
s 114
f 36/83/40 70/78/75 71/79/76 
s 115
f 74/84/79 70/78/75 36/83/40 
s 116
f 70/78/75 74/84/79 65/73/70 
s 117
f 65/73/70 74/84/79 63/66/68 
s 118
f 63/66/68 62/65/67 65/73/70 
s 119
f 36/83/40 38/85/42 74/84/79 
s 120
f 63/66/68 74/84/79 38/85/42 
s 121
f 38/85/42 44/86/48 63/66/68 
s 122
f 64/67/69 63/66/68 44/86/48 
s 123
f 44/86/48 46/87/50 64/67/69 
s 124
f 64/67/69 46/87/50 49/68/53 
s 125
f 75/88/11 76/89/11 77/90/11 
s 126
f 75/88/11 77/90/11 78/91/11 
s 127
f 77/90/11 79/92/11 78/91/11 
s 128
f 79/92/11 80/93/11 78/91/11 
s 129
f 77/90/11 81/94/11 79/92/11 
s 130
f 82/95/11 75/88/11 78/91/11 
s 131
f 83/96/80 84/97/81 85/98/82 
s 132
f 83/96/80 85/98/82 86/99/83 
s 133
f 85/98/82 87/100/84 86/99/83 
s 134
f 88/101/85 89/102/86 83/96/80 
s 135
f 88/101/85 83/96/80 86/99/83 
s 136
f 90/103/87 88/101/85 86/99/83 
s 137
f 91/104/88 84/97/81 83/96/80 
s 138
f 83/96/80 92/105/89 91/104/88 
s 139
f 92/105/89 83/96/80 89/102/86 
s 140
f 89/102/86 93/106/90 92/105/89 
s 141
f 93/106/90 89/102/86 88/101/85 
s 142
f 88/101/85 94/107/91 93/106/90 
s 143
f 94/107/91 88/101/85 90/103/87 
s 144
f 90/103/87 95/108/92 94/107/91 
s 145
f 95/108/92 90/103/87 86/99/83 
s 146
f 86/99/83 96/109/93 95/108/92 
s 147
f 96/109/93 86/99/83 87/100/84 
s 148
f 87/100/84 97/110/94 96/109/93 
s 149
f 97/110/94 87/100/84 85/98/82 
s 150
f 85/98/82 98/111/95 97/110/94 
s 151
f 98/111/95 85/98/82 84/97/81 
s 152
f 84/97/81 91/104/88 98/111/95 
s 153
f 99/112/96 100/113/97 101/114/98 
s 154
f 101/114/98 102/115/99 99/112/96 
s 155
f 102/115/99 101/114/98 103/116/100 
s 156
f 103/116/100 104/117/101 102/115/99 
s 157
f 104/117/101 103/116/100 105/118/102 
s 158
f 105/118/102 106/119/103 104/117/101 
s 159
f 106/119/103 105/118/102 107/120/104 
s 160
f 107/120/104 108/121/105 106/119/103 
s 161
f 109/122/106 106/119/103 108/121/105 
s 162
f 106/119/103 109/122/106 110/123/107 
s 163
f 110/123/107 104/117/101 106/119/103 
s 164
f 104/117/101 110/123/107 111/124/108 
s 165
f 111/124/108 102/115/99 104/117/101 
s 166
f 102/115/99 111/124/108 112/125/109 
s 167
f 112/125/109 99/112/96 102/115/99 
s 168
f 99/112/96 112/125/109 113/126/110 
s 169
f 113/126/110 114/127/111 99/112/96 
s 170
f 100/113/97 99/112/96 114/127/111 
s 171
f 114/127/111 115/128/112 100/113/97 
s 172
f 114/127/111 113/126/110 116/129/113 
s 173
f 116/129/113 117/130/114 114/127/111 
s 174
f 115/128/112 114/127/111 117/130/114 
s 175
f 117/130/114 118/131/115 115/128/112 
s 176
f 109/122/106 80/132/116 79/133/117 
s 177
f 79/133/117 110/123/107 109/122/106 
s 178
f 110/123/107 79/133/117 81/134/118 
s 179
f 81/134/118 111/124/108 110/123/107 
s 180
f 111/124/108 81/134/118 77/135/119 
s 181
f 77/135/119 112/125/109 111/124/108 
s 182
f 112/125/109 77/135/119 76/136/120 
s 183
f 76/136/120 113/126/110 112/125/109 
s 184
f 113/126/110 76/136/120 75/137/121 
s 185
f 75/137/121 116/129/113 113/126/110 
s 186
f 108/121/105 107/120/104 119/138/122 
s 187
f 116/139/113 75/140/121 82/141/123 
s 188
f 82/141/123 120/142/124 116/139/113 
s 189
f 117/143/114 116/139/113 120/142/124 
s 190
f 120/142/124 121/144/125 117/143/114 
s 191
f 118/145/115 117/143/114 121/144/125 
s 192
f 121/144/125 119/138/122 118/145/115 
s 193
f 119/138/122 121/144/125 108/121/105 
s 194
f 122/146/126 108/121/105 121/144/125 
s 195
f 108/121/105 122/146/126 109/122/106 
s 196
f 80/132/116 109/122/106 122/146/126 
s 197
f 121/144/125 120/142/124 122/146/126 
s 198
f 78/147/127 122/146/126 120/142/124 
s 199
f 122/146/126 78/147/127 80/132/116 
s 200
f 120/142/124 82/141/123 78/147/127 
s 201
f 123/148/128 96/149/128 97/150/129 
s 202
f 97/150/129 124/151/129 123/148/128 
s 203
f 124/151/129 97/150/129 98/152/130 
s 204
f 98/152/130 125/153/130 124/151/129 
s 205
f 125/153/130 98/152/130 91/154/131 
s 206
f 91/154/131 126/155/131 125/153/130 
s 207
f 126/156/131 91/157/131 92/158/132 
s 208
f 92/158/132 127/159/132 126/156/131 
s 209
f 127/159/132 92/158/132 93/160/133 
s 210
f 93/160/133 128/161/133 127/159/132 
s 211
f 128/161/133 93/160/133 94/162/134 
s 212
f 94/162/134 129/163/134 128/161/133 
s 213
f 129/163/134 94/162/134 95/164/135 
s 214
f 95/164/135 130/165/135 129/163/134 
s 215
f 130/165/135 95/164/135 96/149/128 
s 216
f 96/149/128 123/148/128 130/165/135 
s 217
f 129/163/136 131/166/136 132/167/137 
s 218
f 132/167/137 128/161/138 129/163/136 
s 219
f 128/161/138 132/167/137 133/168/139 
s 220
f 133/168/139 127/159/140 128/161/138 
s 221
f 127/159/140 133/168/139 134/169/141 
s 222
f 134/169/141 126/156/142 127/159/140 
s 223
f 126/155/142 134/170/141 135/171/143 
s 224
f 135/171/143 125/153/144 126/155/142 
s 225
f 125/153/144 135/171/143 136/172/145 
s 226
f 136/172/145 124/151/146 125/153/144 
s 227
f 124/151/146 136/172/145 137/173/147 
s 228
f 137/173/147 123/148/148 124/151/146 
s 229
f 123/148/148 137/173/147 138/174/149 
s 230
f 138/174/149 130/165/150 123/148/148 
s 231
f 130/165/150 138/174/149 131/166/136 
s 232
f 131/166/136 129/163/136 130/165/150 
s 233
f 35/35/39 34/34/38 37/175/41 
s 234
f 37/175/41 73/176/78 35/35/39 
s 235
f 35/35/39 73/176/78 72/177/77 
s 236
f 72/177/77 139/178/151 35/35/39 
s 237
f 28/28/31 35/35/39 139/178/151 
s 238
f 139/178/151 140/179/152 28/28/31 
s 239
f 28/28/31 140/179/152 23/23/25 
s 240
f 141/180/153 23/23/25 140/179/152 
s 241
f 23/23/25 141/180/153 12/12/14 
s 242
f 13/13/15 12/12/14 141/180/153 
s 243
f 139/178/151 72/181/77 68/182/73 
s 244
f 68/182/73 142/183/154 139/178/151 
s 245
f 139/178/151 142/183/154 140/179/152 
s 246
f 140/179/152 142/183/154 141/180/153 
s 247
f 66/184/71 141/180/153 142/183/154 
s 248
f 141/180/153 66/184/71 13/13/15 
s 249
f 142/183/154 68/182/73 66/184/71 
s 250
f 115/185/155 118/186/155 119/187/155 
s 251
f 101/188/155 100/189/155 115/185/155 
s 252
f 101/188/155 115/185/155 119/187/155 
s 253
f 105/190/155 101/188/155 119/187/155 
s 254
f 107/191/155 105/190/155 119/187/155 
s 255
f 105/190/155 103/192/155 101/188/155 
s 256
f 4/193/4 10/69/12 60/62/156 
s 257
f 1/194/1 4/193/4 143/195/157 
s 258
f 60/62/65 143/195/157 4/193/4 
s 259
f 58/60/63 143/195/157 60/62/65 
s 260
f 143/195/157 58/60/63 57/58/62 
s 261
f 57/58/62 144/196/158 143/195/157 
s 262
f 2/64/2 144/196/158 57/58/62 
s 263
f 2/64/2 1/194/1 144/196/158 
s 264
f 143/195/157 144/196/158 1/194/1 
s 265
f 132/167/159 131/166/160 47/197/161 
s 266
f 47/197/161 45/198/162 132/167/159 
s 267
f 133/168/163 132/167/159 45/198/162 
s 268
f 45/198/162 43/199/164 133/168/163 
s 269
f 134/169/165 133/168/163 43/199/164 
s 270
f 43/199/164 42/200/165 134/169/165 
s 271
f 135/171/166 134/170/165 42/201/165 
s 272
f 42/201/165 41/202/167 135/171/166 
s 273
f 136/172/129 135/171/166 41/202/167 
s 274
f 41/202/167 40/203/168 136/172/129 
s 275
f 137/173/128 136/172/129 40/203/168 
s 276
f 40/203/168 39/204/169 137/173/128 
s 277
f 138/174/170 137/173/128 39/204/169 
s 278
f 39/204/169 48/205/171 138/174/170 
s 279
f 131/166/160 138/174/170 48/205/171 
s 280
f 48/205/171 47/197/161 131/166/160 
# 280 faces

