# 3ds Max Wavefront OBJ Exporter v0.97b - (c)2007 guruware
# File Created: 30.04.2018 17:01:36

mtllib drain.mtl

#
# object drain
#

v  64.0000 1.0000 -0.0000
v  64.0000 1.0000 -64.0000
v  0.0000 1.0000 -64.0000
v  -64.0000 1.0000 -64.0000
v  -64.0000 1.0000 -0.0000
v  0.0000 1.0000 -0.0000
v  0.0000 1.0000 64.0000
v  64.0000 1.0000 64.0000
v  -64.0000 1.0000 64.0000
# 9 vertices

vn 0.0000 1.0000 -0.0000
# 1 vertex normals

vt 0.0000 0.5000 0.5000
vt 0.0000 0.0000 0.0000
vt 0.5000 0.0000 0.0000
vt 1.0000 0.0000 0.0000
vt 1.0000 0.5000 0.5000
vt 0.5000 0.5000 0.5000
vt 0.5000 1.0000 1.0000
vt 0.0000 1.0000 1.0000
vt 1.0000 1.0000 1.0000
# 9 texture coords

g drain
usemtl _drainDrain_Shader
s 1
f 1/1/1 2/2/1 3/3/1 
s 2
f 3/3/1 4/4/1 5/5/1 
s 3
f 5/5/1 6/6/1 3/3/1 
s 4
f 3/3/1 6/6/1 1/1/1 
s 5
f 1/1/1 6/6/1 7/7/1 
s 6
f 7/7/1 8/8/1 1/1/1 
s 7
f 7/7/1 6/6/1 5/5/1 
s 8
f 5/5/1 9/9/1 7/7/1 
# 8 faces

