# 3ds Max Wavefront OBJ Exporter v0.97b - (c)2007 guruware
# File Created: 28.05.2018 12:42:38

mtllib bottle_gin.mtl

#
# object bottle_gin
#

v  -2.0700 33.0042 -0.9901
v  -2.0700 33.0042 0.9822
v  -1.0652 33.0042 1.9765
v  0.9279 33.0042 1.9765
v  1.9328 33.0042 0.9822
v  0.9279 33.0042 -1.9844
v  -1.0652 33.0042 -1.9844
v  2.1095 40.0252 -0.6377
v  0.5718 40.0252 -2.1593
v  2.1095 40.0252 0.6298
v  -0.7091 40.0252 -2.1593
v  -2.2468 40.0252 -0.6377
v  -0.7091 40.0252 2.1514
v  0.5718 40.0252 2.1514
v  -2.2468 40.0252 0.6298
v  1.9328 33.0042 -0.9901
v  -4.5639 29.8511 -5.7480
v  -5.0418 27.8887 -6.1552
v  -6.2851 27.8887 -4.9249
v  -5.0418 27.8887 6.1473
v  -6.2851 27.8887 4.9170
v  -6.2851 0.9919 4.9170
v  -6.2851 0.9919 -4.9249
v  -5.0418 0.9919 -6.1552
v  4.9045 0.9919 -6.1552
v  4.9045 27.8887 -6.1552
v  4.4266 29.8511 -5.7480
v  -0.5257 34.9562 -1.5420
v  -1.6230 34.9562 -0.4562
v  -5.8735 29.8511 -4.4521
v  -5.8735 29.8511 4.4442
v  -4.5639 29.8511 5.7401
v  4.9045 27.8887 6.1473
v  4.4266 29.8511 5.7401
v  6.1478 27.8887 4.9170
v  -1.6230 34.9562 0.4483
v  5.7362 29.8511 4.4442
v  1.4857 34.9562 0.4483
v  0.3884 34.9562 1.5341
v  -0.5257 34.9562 1.5341
v  5.7362 29.8511 -4.4521
v  1.4857 34.9562 -0.4562
v  6.1478 27.8887 -4.9249
v  6.1478 0.9919 -4.9249
v  4.9045 -0.0178 -4.9249
v  6.1478 0.9919 4.9170
v  4.9045 0.9919 6.1473
v  -5.0418 0.9919 6.1473
v  4.9045 -0.0178 4.9170
v  -5.0418 -0.0178 4.9170
v  -5.0418 -0.0178 -4.9249
v  0.3884 34.9562 -1.5420
v  -0.7091 36.5088 -2.1593
v  0.5718 36.5088 -2.1593
v  0.4240 36.0344 -1.6620
v  1.6069 36.0393 -0.4915
v  2.1095 36.5088 -0.6377
v  1.6069 36.0393 0.4836
v  2.1095 36.5088 0.6298
v  0.4240 36.0344 1.6541
v  0.5718 36.5088 2.1514
v  -0.5613 36.0303 1.6541
v  -0.7091 36.5088 2.1514
v  -1.7442 36.0254 0.4836
v  -2.2468 36.5088 0.6298
v  -1.7442 36.0254 -0.4915
v  -2.2468 36.5088 -0.6377
v  -0.5613 36.0303 -1.6620
v  3.9204 28.9638 -5.1011
v  5.0826 28.9638 -3.9512
v  -5.2199 28.9638 -3.9512
v  -4.0577 28.9638 -5.1011
v  -4.4818 27.1040 -5.4625
v  4.3445 27.1040 -5.4625
v  4.3445 1.6125 -5.4625
v  -4.4818 1.6125 -5.4625
v  -5.5851 27.1040 -4.3708
v  -5.5851 1.6125 -4.3708
v  -5.5851 27.1040 4.3629
v  -5.2199 28.9638 3.9433
v  -4.4818 0.6556 -4.3708
v  -4.4818 0.6556 4.3629
v  4.3445 0.6556 -4.3708
v  -5.5851 1.6125 4.3629
v  -4.4818 27.1040 5.4546
v  -4.4818 1.6125 5.4546
v  4.3445 27.1040 5.4546
v  4.3445 1.6125 5.4546
v  5.4478 27.1040 4.3629
v  5.4478 1.6125 4.3629
v  5.4478 27.1040 -4.3708
v  5.4478 1.6125 -4.3708
v  4.3445 0.6556 4.3629
v  5.0826 28.9638 3.9433
v  3.9204 28.9638 5.0932
v  -4.0577 28.9638 5.0932
# 96 vertices

vn 0.0000 1.0000 -0.0000
vn -0.6702 0.3037 -0.6772
vn -0.7034 0.0000 0.7108
vn -1.0000 0.0000 -0.0000
vn -0.7034 0.0000 -0.7108
vn 0.2387 -0.4253 -0.8730
vn 0.0000 0.0000 -1.0000
vn 0.4949 0.1460 -0.8566
vn 0.2057 0.4962 -0.8435
vn 0.0000 0.2032 -0.9791
vn 0.0000 0.6359 -0.7718
vn -0.2263 0.3309 -0.9161
vn -0.8083 0.3613 -0.4649
vn -0.4634 0.7523 -0.4683
vn -0.9787 0.2053 -0.0000
vn -0.6702 0.3037 0.6772
vn 0.0000 0.2032 0.9791
vn 0.6702 0.3037 0.6772
vn -0.7685 0.6399 -0.0000
vn -0.9148 0.3326 0.2294
vn 0.4634 0.7523 0.4683
vn 0.8082 0.3618 0.4647
vn 0.2265 0.3310 0.9161
vn 0.0000 0.6359 0.7718
vn -0.4589 0.3600 0.8123
vn -0.4634 0.7523 0.4683
vn 0.7685 0.6399 -0.0000
vn 0.7316 0.5389 -0.4175
vn 0.9145 0.3333 -0.2293
vn 0.9787 0.2053 -0.0000
vn 0.6702 0.3037 -0.6772
vn 0.5317 -0.6547 -0.5373
vn 0.3307 -0.9187 -0.2161
vn 0.7034 0.0000 -0.7108
vn 1.0000 0.0000 -0.0000
vn 0.7034 0.0000 0.7108
vn 0.0000 0.0000 1.0000
vn 0.6304 -0.7763 -0.0000
vn 0.2571 -0.8799 0.3996
vn 0.5317 -0.6547 0.5373
vn 0.0000 -0.7730 0.6344
vn -0.3307 -0.9187 0.2161
vn -0.5317 -0.6547 0.5373
vn -0.6304 -0.7763 -0.0000
vn -0.2571 -0.8799 -0.3996
vn -0.5317 -0.6547 -0.5373
vn 0.0000 -0.7730 -0.6344
vn 0.4590 0.3604 -0.8121
vn -0.3689 -0.4118 -0.8333
vn 0.3304 -0.4073 -0.8514
vn 0.2266 -0.4603 -0.8584
vn 0.7648 -0.4558 -0.4553
vn 0.8279 -0.4181 -0.3738
vn 0.8550 -0.4659 0.2278
vn 0.8488 -0.4099 0.3339
vn 0.4508 -0.4538 0.7687
vn 0.3696 -0.4125 0.8326
vn -0.2249 -0.4601 0.8589
vn -0.3309 -0.4037 0.8529
vn -0.7665 -0.4515 0.4568
vn -0.8312 -0.4111 0.3743
vn -0.8579 -0.4598 -0.2294
vn -0.8507 -0.4044 -0.3358
vn -0.4503 -0.4502 -0.7711
vn 0.3005 0.5035 -0.8101
vn 0.4804 0.7304 -0.4855
vn 0.6068 0.7199 -0.3368
vn 0.7998 0.4968 -0.3369
vn -0.4804 0.7304 -0.4855
vn -0.7137 0.6799 -0.1684
vn -0.4804 0.7304 -0.4856
vn 0.0000 0.6108 -0.7918
vn 0.0000 0.1908 -0.9816
vn 0.4957 0.1373 -0.8576
vn 0.2400 -0.4099 -0.8800
vn -0.9813 0.1927 -0.0000
vn -0.6740 0.2860 -0.6812
vn -0.6740 0.2860 -0.6811
vn -0.7887 0.6148 -0.0000
vn -0.6068 0.7199 0.3368
vn -0.6552 -0.7554 -0.0000
vn -0.2682 -0.8682 -0.4175
vn -0.3457 -0.9109 0.2255
vn -0.5463 -0.6299 -0.5521
vn 0.0000 -0.7520 -0.6592
vn 0.3457 -0.9109 -0.2255
vn 0.5463 -0.6299 -0.5521
vn 0.6552 -0.7554 -0.0000
vn 0.2682 -0.8682 0.4175
vn 0.5463 -0.6299 0.5521
vn 0.0000 -0.7520 0.6592
vn -0.5463 -0.6299 0.5521
vn 0.6740 0.2860 -0.6811
vn 0.9813 0.1927 -0.0000
vn 0.6740 0.2860 0.6812
vn 0.6740 0.2860 0.6811
vn 0.0000 0.1908 0.9816
vn -0.6739 0.2860 0.6812
vn -0.6740 0.2860 0.6811
vn 0.4804 0.7304 0.4855
vn 0.7138 0.6799 0.1684
vn 0.4804 0.7304 0.4856
vn 0.0000 0.6108 0.7918
vn -0.4804 0.7304 0.4855
vn 0.7887 0.6148 -0.0000
vn -0.8610 0.0000 -0.5086
# 106 vertex normals

vt 0.3056 -0.1851 -0.1851
vt 0.3158 -0.1848 -0.1848
vt 0.3235 -0.1849 -0.1849
vt 0.3257 -0.1849 -0.1849
vt 0.3270 -0.1849 -0.1849
vt 0.3018 -0.1850 -0.1850
vt 0.3042 -0.1850 -0.1850
vt 0.1410 0.4490 0.4490
vt 0.1404 0.4807 0.4807
vt 0.1280 0.4355 0.4355
vt 0.1269 0.4937 0.4937
vt 0.0951 0.4931 0.4931
vt 0.0828 0.4478 0.4478
vt 0.0963 0.4349 0.4349
vt 0.0821 0.4796 0.4796
vt 0.3360 -0.1846 -0.1846
vt 0.1283 0.2845 0.2845
vt 0.1291 0.2655 0.2655
vt 0.1421 0.2655 0.2655
vt 0.2678 0.2655 0.2655
vt 0.2511 0.2655 0.2655
vt 0.2506 0.0214 0.0214
vt 0.1426 0.0214 0.0214
vt 0.1302 0.0211 0.0211
vt 0.0205 0.0214 0.0214
vt 0.0205 0.2655 0.2655
vt 0.0235 0.2845 0.2845
vt 0.0785 0.3852 0.3852
vt 0.0932 0.3848 0.3848
vt 0.1450 0.2845 0.2845
vt 0.2477 0.2845 0.2845
vt 0.2714 0.2852 0.2852
vt 0.3712 0.2655 0.2655
vt 0.3649 0.2845 0.2845
vt 0.3836 0.2655 0.2655
vt 0.2089 0.3888 0.3888
vt 0.1871 0.3888 0.3888
vt 0.3832 0.2845 0.2845
vt 0.3323 0.3866 0.3866
vt 0.3188 0.3866 0.3866
vt 0.3075 0.3866 0.3866
vt 0.2939 0.3866 0.3866
vt 0.4735 0.2845 0.2845
vt 0.4348 0.3904 0.3904
vt 0.4221 0.3906 0.3906
vt 0.4760 0.2655 0.2655
vt 0.4924 0.2655 0.2655
vt 0.4905 0.2845 0.2845
vt 0.4924 0.0214 0.0214
vt 0.4760 0.0214 0.0214
vt 0.4809 0.0085 0.0085
vt 0.3836 0.0214 0.0214
vt 0.3712 0.0214 0.0214
vt 0.2683 0.0214 0.0214
vt 0.3799 0.0085 0.0085
vt 0.2586 0.0085 0.0085
vt 0.1361 0.0085 0.0085
vt 0.0206 0.0085 0.0085
vt 0.0662 0.3852 0.3852
vt 0.0017 0.2852 0.2852
vt 0.0542 0.3848 0.3848
vt 0.0472 0.4136 0.4136
vt 0.0242 0.4136 0.4136
vt 0.0268 0.4227 0.4227
vt 0.0055 0.4439 0.4439
vt -0.0035 0.4413 0.4413
vt 0.0055 0.4617 0.4617
vt -0.0035 0.4643 0.4643
vt 0.0268 0.4829 0.4829
vt 0.0242 0.4920 0.4920
vt 0.0445 0.4829 0.4829
vt 0.0472 0.4920 0.4920
vt 0.0658 0.4617 0.4617
vt 0.0748 0.4643 0.4643
vt 0.0658 0.4439 0.4439
vt 0.0748 0.4413 0.4413
vt 0.0445 0.4227 0.4227
vt 0.3543 0.4136 0.4136
vt 0.3543 0.4935 0.4935
vt 0.4342 0.4935 0.4935
vt 0.4342 0.4136 0.4136
vt 0.2986 -0.1926 -0.1926
vt 0.3006 -0.1851 -0.1851
vt 0.2966 -0.1925 -0.1925
vt 0.3095 -0.1926 -0.1926
vt 0.3080 -0.1926 -0.1926
vt 0.3081 -0.1943 -0.1943
vt 0.2983 -0.1943 -0.1943
vt 0.2983 -0.2162 -0.2162
vt 0.3081 -0.2162 -0.2162
vt 0.3092 -0.1943 -0.1943
vt 0.3093 -0.2162 -0.2162
vt 0.3190 -0.1943 -0.1943
vt 0.3187 -0.1926 -0.1926
vt 0.3126 -0.1848 -0.1848
vt 0.3087 -0.2173 -0.2173
vt 0.3197 -0.2173 -0.2173
vt 0.2983 -0.2173 -0.2173
vt 0.3189 -0.2162 -0.2162
vt 0.3205 -0.1943 -0.1943
vt 0.3205 -0.2162 -0.2162
vt 0.3298 -0.1943 -0.1943
vt 0.3298 -0.2162 -0.2162
vt 0.3309 -0.1943 -0.1943
vt 0.3309 -0.2162 -0.2162
vt 0.3392 -0.1943 -0.1943
vt 0.3392 -0.2162 -0.2162
vt 0.3406 -0.1943 -0.1943
vt 0.3406 -0.2162 -0.2162
vt 0.3396 -0.2173 -0.2173
vt 0.3305 -0.2173 -0.2173
vt 0.3404 -0.1926 -0.1926
vt 0.3389 -0.1926 -0.1926
vt 0.3308 -0.1926 -0.1926
vt 0.3292 -0.1926 -0.1926
vt 0.3208 -0.1925 -0.1925
vt 0.3221 -0.1849 -0.1849
vt 0.3337 -0.1846 -0.1846
vt 0.3282 -0.1810 -0.1810
vt 0.3282 -0.1738 -0.1738
vt 0.3354 -0.1738 -0.1738
vt 0.3354 -0.1810 -0.1810
vt 0.4704 0.4173 0.4173
vt 0.4919 0.4194 0.4194
vt 0.4880 0.4465 0.4465
vt 0.4667 0.4424 0.4424
vt 0.4846 0.4623 0.4623
vt 0.4635 0.4570 0.4570
vt 0.4769 0.4886 0.4886
vt 0.4562 0.4813 0.4813
vt 0.4635 0.3223 0.3223
vt 0.4847 0.3171 0.3171
vt 0.4882 0.3328 0.3328
vt 0.4667 0.3369 0.3369
vt 0.4921 0.3599 0.3599
vt 0.4704 0.3621 0.3621
vt 0.4932 0.3760 0.3760
vt 0.4715 0.3770 0.3770
vt 0.4931 0.4034 0.4034
vt 0.4715 0.4024 0.4024
vt 0.3159 0.4198 0.4198
vt 0.3373 0.4198 0.4198
vt 0.3373 0.4919 0.4919
vt 0.3159 0.4919 0.4919
vt 0.2903 0.4198 0.4198
vt 0.2903 0.4919 0.4919
vt 0.2690 0.4198 0.4198
vt 0.2690 0.4919 0.4919
vt 0.2434 0.4198 0.4198
vt 0.2434 0.4919 0.4919
vt 0.2221 0.4198 0.4198
vt 0.2221 0.4919 0.4919
vt 0.1965 0.4198 0.4198
vt 0.1965 0.4919 0.4919
vt 0.1751 0.4198 0.4198
vt 0.1751 0.4919 0.4919
vt 0.1495 0.4198 0.4198
vt 0.1495 0.4919 0.4919
# 158 texture coords

g bottle_gin
usemtl bottles_shelf_diffuse_shader
s off
f 1/1/1 2/2/1 3/3/1 
f 3/3/1 4/4/1 5/5/1 
f 3/3/1 5/5/1 6/6/1 
f 7/7/1 1/1/1 6/6/1 
f 8/8/1 9/9/1 10/10/1 
f 9/9/1 11/11/1 12/12/1 
f 9/9/1 12/12/1 13/13/1 
f 9/9/1 13/13/1 10/10/1 
f 13/13/1 14/14/1 10/10/1 
f 12/12/1 15/15/1 13/13/1 
f 1/1/1 3/3/1 6/6/1 
f 5/5/1 16/16/1 6/6/1 
f 17/17/2 18/18/2 19/19/2 
f 20/20/3 21/21/3 22/22/3 
f 23/23/4 22/22/4 21/21/4 
f 21/21/4 19/19/4 23/23/4 
f 24/24/5 23/23/5 19/19/5 
f 19/19/5 18/18/5 24/24/5 
f 25/25/6 24/24/7 18/18/7 
f 18/18/7 26/26/8 25/25/6 
f 27/27/9 26/26/8 18/18/10 
f 18/18/10 17/17/10 27/27/9 
f 27/27/9 17/17/11 28/28/12 
f 29/29/13 28/28/12 17/17/14 
f 17/17/14 30/30/14 29/29/13 
f 19/19/2 30/30/2 17/17/2 
f 30/30/15 19/19/15 21/21/15 
f 21/21/15 31/31/15 30/30/15 
f 31/31/16 21/21/16 20/20/16 
f 20/20/16 32/32/16 31/31/16 
f 32/32/17 20/20/17 33/33/17 
f 33/33/17 34/34/17 32/32/17 
f 34/34/18 33/33/18 35/35/18 
f 30/30/19 31/31/19 36/36/20 
f 36/36/20 29/37/13 30/30/19 
f 34/34/21 37/38/21 38/39/22 
f 38/39/22 39/40/23 34/34/21 
f 32/32/24 34/34/24 39/40/23 
f 39/40/23 40/41/25 32/32/24 
f 31/31/26 32/32/26 40/41/25 
f 40/41/25 36/42/20 31/31/26 
f 37/38/27 41/43/28 42/44/29 
f 42/44/29 38/45/22 37/38/27 
f 35/35/18 37/38/18 34/34/18 
f 37/38/30 35/35/30 43/46/30 
f 43/46/30 41/43/28 37/38/30 
f 41/43/28 43/46/31 26/47/8 
f 26/47/8 27/48/9 41/43/28 
f 25/49/6 44/50/32 45/51/33 
f 44/50/34 25/49/6 26/47/8 
f 26/47/8 43/46/34 44/50/34 
f 46/52/35 44/50/35 43/46/35 
f 43/46/35 35/35/35 46/52/35 
f 47/53/36 46/52/36 35/35/36 
f 35/35/36 33/33/36 47/53/36 
f 48/54/37 47/53/37 33/33/37 
f 33/33/37 20/20/37 48/54/37 
f 22/22/3 48/54/3 20/20/3 
f 45/51/33 44/50/38 46/52/38 
f 46/52/38 49/55/39 45/51/33 
f 46/52/40 47/53/40 49/55/39 
f 49/55/39 47/53/41 48/54/41 
f 48/54/41 50/56/42 49/55/39 
f 50/56/42 48/54/43 22/22/43 
f 50/56/42 22/22/44 23/23/44 
f 23/23/44 51/57/45 50/56/42 
f 51/57/45 23/23/46 24/24/46 
f 51/57/45 24/24/47 25/25/6 
f 25/25/6 45/58/33 51/57/45 
f 28/28/12 52/59/48 27/27/9 
f 41/60/28 27/27/9 52/59/48 
f 52/59/48 42/61/29 41/60/28 
f 53/62/49 54/63/50 55/64/51 
f 56/65/52 55/64/51 54/63/50 
f 54/63/50 57/66/53 56/65/52 
f 58/67/54 56/65/52 57/66/53 
f 57/66/53 59/68/55 58/67/54 
f 60/69/56 58/67/54 59/68/55 
f 59/68/55 61/70/57 60/69/56 
f 62/71/58 60/69/56 61/70/57 
f 61/70/57 63/72/59 62/71/58 
f 64/73/60 62/71/58 63/72/59 
f 63/72/59 65/74/61 64/73/60 
f 66/75/62 64/73/60 65/74/61 
f 65/74/61 67/76/63 66/75/62 
f 68/77/64 66/75/62 67/76/63 
f 67/76/63 53/62/49 68/77/64 
f 55/64/51 68/77/64 53/62/49 
f 45/78/33 49/79/39 50/80/42 
f 50/80/42 51/81/45 45/78/33 
f 69/82/65 6/6/66 16/83/67 
f 16/83/67 70/84/68 69/82/65 
f 71/85/69 1/1/70 7/7/69 
f 7/7/71 72/86/71 71/85/71 
f 72/86/72 7/7/72 6/6/72 
f 6/6/72 69/82/65 72/86/72 
f 73/87/73 72/86/73 69/82/65 
f 69/82/65 74/88/74 73/87/73 
f 73/87/7 74/88/74 75/89/75 
f 75/89/75 76/90/7 73/87/7 
f 77/91/5 73/87/5 76/90/5 
f 76/90/5 78/92/5 77/91/5 
f 79/93/76 80/94/76 71/85/76 
f 71/85/76 77/91/76 79/93/76 
f 77/91/77 71/85/77 72/86/77 
f 72/86/78 73/87/78 77/91/78 
f 80/94/79 2/2/80 1/95/70 
f 1/95/70 71/85/79 80/94/79 
f 78/92/81 81/96/82 82/97/83 
f 81/96/82 78/92/84 76/90/84 
f 81/96/82 76/90/85 75/89/75 
f 75/89/75 83/98/86 81/96/82 
f 79/93/4 77/91/4 78/92/4 
f 78/92/4 84/99/4 79/93/4 
f 85/100/3 79/93/3 84/99/3 
f 84/99/3 86/101/3 85/100/3 
f 87/102/37 85/100/37 86/101/37 
f 86/101/37 88/103/37 87/102/37 
f 89/104/36 87/102/36 88/103/36 
f 88/103/36 90/105/36 89/104/36 
f 91/106/35 89/104/35 90/105/35 
f 90/105/35 92/107/35 91/106/35 
f 74/108/74 91/106/34 92/107/34 
f 92/107/34 75/109/75 74/108/74 
f 75/109/75 92/107/87 83/110/86 
f 83/110/86 92/107/88 90/105/88 
f 90/105/88 93/111/89 83/110/86 
f 90/105/90 88/103/90 93/111/89 
f 93/111/89 88/103/91 86/101/91 
f 86/101/91 82/97/83 93/111/89 
f 82/97/83 86/101/92 84/99/92 
f 82/97/83 84/99/81 78/92/81 
f 74/108/74 69/112/65 70/113/68 
f 70/113/68 91/106/93 74/108/74 
f 91/106/94 70/113/68 94/114/94 
f 94/114/94 89/104/94 91/106/94 
f 89/104/95 94/114/95 95/115/95 
f 95/115/96 87/102/96 89/104/96 
f 87/102/97 95/115/97 96/116/97 
f 96/116/97 85/100/97 87/102/97 
f 85/100/98 96/116/98 80/94/98 
f 80/94/99 79/93/99 85/100/99 
f 94/114/100 5/5/101 4/4/100 
f 4/4/102 95/115/102 94/114/102 
f 95/115/103 4/4/103 3/3/103 
f 3/3/103 96/116/103 95/115/103 
f 96/116/104 3/3/104 2/117/80 
f 2/117/80 80/94/104 96/116/104 
f 70/113/68 16/16/67 5/118/101 
f 5/118/101 94/114/105 70/113/68 
f 83/119/86 93/120/89 82/121/83 
f 82/121/83 81/122/82 83/119/86 
f 29/123/13 66/124/62 68/125/64 
f 68/125/64 28/126/12 29/123/13 
f 28/126/12 68/125/64 55/127/51 
f 55/127/51 52/128/48 28/126/12 
f 52/128/48 55/127/51 56/129/52 
f 56/129/52 42/130/29 52/128/48 
f 42/131/29 56/132/52 58/133/54 
f 58/133/54 38/134/22 42/131/29 
f 38/134/22 58/133/54 60/135/56 
f 60/135/56 39/136/23 38/134/22 
f 39/136/23 60/135/56 62/137/58 
f 62/137/58 40/138/25 39/136/23 
f 40/138/25 62/137/58 64/139/60 
f 64/139/60 36/140/20 40/138/25 
f 36/140/20 64/139/60 66/124/62 
f 66/124/62 29/123/13 36/140/20 
f 15/141/4 12/142/106 67/143/63 
f 67/143/63 65/144/61 15/141/4 
f 13/145/3 15/141/3 65/144/61 
f 65/144/61 63/146/59 13/145/3 
f 14/147/37 13/145/37 63/146/59 
f 63/146/59 61/148/57 14/147/37 
f 10/149/36 14/147/36 61/148/57 
f 61/148/57 59/150/55 10/149/36 
f 8/151/35 10/149/35 59/150/55 
f 59/150/55 57/152/53 8/151/35 
f 9/153/34 8/151/34 57/152/53 
f 57/152/53 54/154/50 9/153/34 
f 11/155/7 9/153/7 54/154/50 
f 54/154/50 53/156/49 11/155/7 
f 12/157/106 11/155/5 53/156/49 
f 53/156/49 67/158/63 12/157/106 
# 184 faces

